<svg width="70" height="70" viewBox="0 0 70 70" fill="none" xmlns="http://www.w3.org/2000/svg">
<path d="M28.9093 19.4278C28.898 21.075 28.6369 22.7166 28.109 24.3073C27.5697 25.8868 26.7637 27.4269 25.6341 28.7469C24.5045 30.0612 23.0684 31.1612 21.4393 31.8607C19.8159 32.5715 18.0165 32.8987 16.2569 32.8254C14.4915 32.7464 12.7603 32.2782 11.2163 31.511C9.67238 30.7438 8.28736 29.7115 7.1294 28.493C4.79077 26.073 3.30926 22.8576 3.09356 19.4222C3.00274 17.7129 3.21844 15.9529 3.8258 14.3057C4.42749 12.6585 5.39813 11.1355 6.62421 9.85493C9.06502 7.2826 12.6354 5.7031 16.2512 5.75387C18.0506 5.77644 19.8443 6.16003 21.4734 6.89901C23.1025 7.63799 24.5272 8.75492 25.6511 10.0806C27.9046 12.777 28.9093 16.156 28.9093 19.4278ZM28.6823 19.4278C28.6709 17.8088 28.2849 16.1955 27.5527 14.7796C26.8375 13.3524 25.7817 12.1283 24.5897 11.1467C23.392 10.1652 22.041 9.43185 20.6333 8.92415C19.2256 8.41082 17.7441 8.15133 16.2569 8.16825C13.2939 8.19646 10.3422 9.3021 8.15113 11.3667C5.98279 13.4257 4.56372 16.314 4.34234 19.4222C4.24585 20.9735 4.45587 22.5699 5.03485 24.0422C5.60248 25.5202 6.49933 26.8797 7.6573 27.974C8.82094 29.0628 10.2173 29.8807 11.7045 30.3546C13.1917 30.8397 14.747 31.0146 16.2626 30.9356C19.2994 30.7833 22.2056 29.6776 24.618 27.7202C25.8101 26.733 26.8602 25.5089 27.5754 24.0761C28.3076 22.6602 28.6879 21.0468 28.6823 19.4278Z" fill="url(#paint0_linear)"/>
<path d="M65.2887 20.2063C65.2773 21.8535 65.0162 23.495 64.4883 25.0858C63.9491 26.6653 63.143 28.2053 62.0134 29.5253C60.8839 30.8397 59.4478 31.9397 57.8187 32.6392C56.1952 33.35 54.3959 33.6771 52.6362 33.6038C50.8709 33.5248 49.1396 33.0566 47.5957 32.2894C46.0517 31.5222 44.6667 30.4899 43.5087 29.2715C41.1701 26.8514 39.6886 23.636 39.4729 20.2006C39.3821 18.4914 39.5978 16.7314 40.2051 15.0842C40.8068 13.437 41.7775 11.9139 43.0035 10.6334C45.4443 8.06105 49.0147 6.48155 52.6305 6.53232C54.4299 6.55488 56.2236 6.93847 57.8527 7.67745C59.4818 8.41643 60.9066 9.53336 62.0305 10.859C64.284 13.5554 65.2887 16.9344 65.2887 20.2063ZM65.0616 20.2063C65.0503 18.5873 64.6643 16.9739 63.932 15.558C63.2168 14.1308 62.161 12.9067 60.969 11.9252C59.7713 10.9436 58.4203 10.2103 57.0126 9.7026C55.6049 9.18926 54.1234 8.92977 52.6362 8.94669C49.6732 8.9749 46.7215 10.0805 44.5305 12.1452C42.3621 14.2042 40.943 17.0924 40.7217 20.2006C40.6252 21.7519 40.8352 23.3483 41.4142 24.8207C41.9818 26.2986 42.8787 27.6581 44.0366 28.7525C45.2003 29.8412 46.5966 30.6592 48.0838 31.133C49.571 31.6181 51.1263 31.793 52.6419 31.714C55.6787 31.5617 58.585 30.4561 60.9974 28.4986C62.1894 27.5114 63.2395 26.2873 63.9547 24.8545C64.687 23.4442 65.0673 21.8252 65.0616 20.2063Z" fill="url(#paint1_linear)"/>
<path d="M10.7225 17.9724C10.9609 18.3447 11.0744 18.717 11.1652 19.0893C11.2504 19.4617 11.2844 19.834 11.2901 20.2063C11.2901 20.5786 11.2504 20.9509 11.1709 21.3232C11.0801 21.6955 10.9609 22.0678 10.7225 22.4401C10.4841 22.0678 10.3649 21.6955 10.2741 21.3232C10.1889 20.9509 10.1549 20.5786 10.1549 20.2063C10.1549 19.834 10.1946 19.4617 10.2797 19.0893C10.3706 18.717 10.4898 18.3447 10.7225 17.9724Z" fill="url(#paint2_linear)"/>
<path d="M5.12001 17.9724C5.35842 18.3447 5.47194 18.717 5.56276 19.0893C5.64791 19.4617 5.68196 19.834 5.68764 20.2063C5.68764 20.5786 5.64791 20.9509 5.56844 21.3232C5.47762 21.6955 5.35842 22.0678 5.12001 22.4401C4.88161 22.0678 4.76241 21.6955 4.67158 21.3232C4.58644 20.9509 4.55238 20.5786 4.55238 20.2063C4.55238 19.834 4.59212 19.4617 4.67726 19.0893C4.76808 18.717 4.88161 18.3447 5.12001 17.9724Z" fill="url(#paint3_linear)"/>
<path d="M21.8651 17.9724C22.1035 18.3447 22.217 18.717 22.3078 19.0893C22.393 19.4617 22.427 19.834 22.4327 20.2063C22.4327 20.5786 22.393 20.9509 22.3135 21.3232C22.2227 21.6955 22.1035 22.0678 21.8651 22.4401C21.6267 22.0678 21.5075 21.6955 21.4166 21.3232C21.3315 20.9509 21.2974 20.5786 21.2974 20.2063C21.2974 19.834 21.3372 19.4617 21.4223 19.0893C21.5075 18.717 21.6267 18.3447 21.8651 17.9724Z" fill="url(#paint4_linear)"/>
<path d="M28.1147 17.9724C28.3531 18.3447 28.4666 18.717 28.5574 19.0893C28.6426 19.4617 28.6766 19.834 28.6823 20.2063C28.6823 20.5786 28.6426 20.9509 28.5631 21.3232C28.4723 21.6955 28.3531 22.0678 28.1147 22.4401C27.8763 22.0678 27.7571 21.6955 27.6662 21.3232C27.5811 20.9509 27.547 20.5786 27.547 20.2063C27.547 19.834 27.5868 19.4617 27.6719 19.0893C27.7627 18.717 27.8819 18.3447 28.1147 17.9724Z" fill="url(#paint5_linear)"/>
<path d="M16.2569 17.9724C16.4953 18.3447 16.6088 18.717 16.6996 19.0893C16.7848 19.4617 16.8188 19.834 16.8245 20.2063C16.8245 20.5786 16.7848 20.9509 16.7053 21.3232C16.6145 21.6955 16.4953 22.0678 16.2569 22.4401C16.0185 22.0678 15.8993 21.6955 15.8084 21.3232C15.7233 20.9509 15.6892 20.5786 15.6892 20.2063C15.6892 19.834 15.729 19.4617 15.8141 19.0893C15.9049 18.717 16.0241 18.3447 16.2569 17.9724Z" fill="url(#paint6_linear)"/>
<path d="M42.0272 13.4821C42.8957 13.2677 43.7642 13.1719 44.6383 13.0985C45.5068 13.0365 46.3753 13.0026 47.2494 13.0647C48.1179 13.138 48.9864 13.3185 49.8605 13.3524C50.729 13.3919 51.5975 13.3298 52.4716 13.2283C53.3401 13.1154 54.2086 13.0365 55.0827 13.0026C55.9512 12.9575 56.8196 12.9236 57.6938 12.9349C59.4307 12.9857 61.1734 13.1154 62.9103 13.4821V13.5949C61.1734 13.956 59.4307 14.0857 57.6938 14.1421C56.8253 14.1534 55.9569 14.1196 55.0827 14.0744C54.2142 14.0462 53.3458 13.9616 52.4716 13.8488C51.6031 13.7416 50.7347 13.6852 49.8605 13.7247C48.992 13.7585 48.1236 13.939 47.2494 14.0124C46.3809 14.0801 45.5125 14.0406 44.6383 13.9785C43.7699 13.9052 42.9014 13.8149 42.0272 13.5949V13.4821Z" fill="url(#paint7_linear)"/>
<path d="M40.0973 20.1498C41.1417 19.9355 42.1862 19.8396 43.2306 19.7662C44.275 19.7042 45.3195 19.6703 46.3639 19.7324C47.4083 19.8057 48.4528 19.9862 49.4972 20.0201C50.5417 20.0596 51.5861 19.9975 52.6305 19.896C53.675 19.7832 54.7194 19.7042 55.7638 19.6703C56.8083 19.6252 57.8527 19.5914 58.8972 19.6027C60.986 19.6534 63.0749 19.7832 65.1638 20.1498V20.2627C63.0749 20.6237 60.986 20.7534 58.8972 20.8098C57.8527 20.8211 56.8083 20.7873 55.7638 20.7421C54.7194 20.7139 53.675 20.6293 52.6305 20.5165C51.5861 20.4093 50.5417 20.3529 49.4972 20.3924C48.4528 20.4262 47.4083 20.6068 46.3639 20.6801C45.3195 20.7478 44.275 20.7083 43.2306 20.6462C42.1862 20.5729 41.1417 20.4827 40.0973 20.2627V20.1498Z" fill="url(#paint8_linear)"/>
<path d="M42.3167 27.3084C43.1625 27.094 44.0083 26.9981 44.854 26.9248C45.6998 26.8628 46.5456 26.8289 47.3913 26.891C48.2371 26.9643 49.0829 27.1448 49.9286 27.1787C50.7744 27.2181 51.6202 27.1561 52.4659 27.0546C53.3117 26.9417 54.1575 26.8628 55.0032 26.8289C55.849 26.7838 56.6948 26.7499 57.5405 26.7612C59.2321 26.812 60.9236 26.9417 62.6151 27.3084V27.4212C60.9236 27.7823 59.2321 27.912 57.5405 27.9684C56.6948 27.9797 55.849 27.9458 55.0032 27.9007C54.1575 27.8725 53.3117 27.7879 52.4659 27.6751C51.6202 27.5679 50.7744 27.5115 49.9286 27.551C49.0829 27.5848 48.2371 27.7653 47.3913 27.8387C46.5456 27.9064 45.6998 27.8669 44.854 27.8048C44.0083 27.7315 43.1625 27.6412 42.3167 27.4212V27.3084Z" fill="url(#paint9_linear)"/>
<path d="M25.7363 62.0912C24.6351 63.321 23.3409 64.3758 21.8877 65.222C20.4289 66.0512 18.7998 66.6718 17.0743 66.92C15.3543 67.1625 13.5436 67.0441 11.8577 66.4912C10.1662 65.9497 8.60523 65.0189 7.32806 63.8004C6.05657 62.5763 5.07458 61.0927 4.42748 59.4963C3.78606 57.9055 3.43413 56.2245 3.37737 54.5435C3.23546 51.1927 4.26854 47.8024 6.39715 45.0947C7.46429 43.7521 8.8039 42.5788 10.3592 41.7439C11.9088 40.9034 13.6514 40.4069 15.4225 40.2546C18.9645 39.9331 22.6938 41.1008 25.3673 43.5208C26.7012 44.7224 27.7911 46.189 28.512 47.8137C29.2385 49.4383 29.5678 51.2152 29.5224 52.947C29.4202 56.4445 27.916 59.6373 25.7363 62.0912ZM25.566 61.9389C26.6388 60.7204 27.4221 59.2594 27.8195 57.7137C28.2338 56.1737 28.2622 54.5604 28.0181 53.0429C27.7741 51.5198 27.2518 50.0814 26.5366 48.7726C25.8271 47.4639 24.8848 46.2906 23.7609 45.326C21.5188 43.3967 18.5728 42.2798 15.553 42.387C12.5502 42.4998 9.56452 43.7295 7.32806 45.9183C6.22119 47.0183 5.31298 48.3496 4.76238 49.8332C4.20043 51.3111 3.9677 52.9245 4.10393 54.504C4.25151 56.0835 4.75103 57.6178 5.55138 58.9548C6.34607 60.2973 7.3905 61.4481 8.57685 62.3902C10.9552 64.2743 13.8671 65.363 16.9778 65.4815C18.5274 65.5266 20.1338 65.301 21.6266 64.6974C23.1309 64.1164 24.4932 63.1517 25.566 61.9389Z" fill="url(#paint10_linear)"/>
<path d="M12.7943 41.7383C13.589 42.1501 14.3042 42.6521 15.0024 43.1711C15.6949 43.6957 16.3704 44.2429 16.9778 44.8634C17.5794 45.4896 18.113 46.2004 18.7431 46.7927C19.3675 47.3963 20.06 47.9209 20.7809 48.4173C21.5074 48.9081 22.2113 49.4158 22.8868 49.9686C23.5679 50.5045 24.2434 51.0517 24.8848 51.6327C26.1506 52.8173 27.371 54.0584 28.4325 55.4743L28.3587 55.5589C26.8148 54.6845 25.4241 53.6409 24.0845 52.5353C23.426 51.9712 22.796 51.3732 22.1772 50.7696C21.5472 50.1717 20.9512 49.5399 20.3722 48.8855C19.7932 48.2311 19.1802 47.6163 18.499 47.0747C17.8292 46.5275 17.0516 46.0932 16.3534 45.5742C15.6609 45.0496 15.0308 44.4516 14.4178 43.8311C13.8161 43.205 13.2257 42.5619 12.7149 41.8285L12.7943 41.7383Z" fill="url(#paint11_linear)"/>
<path d="M6.90236 45.4669C7.82759 45.9915 8.67336 46.6121 9.5021 47.2439C10.3252 47.8869 11.1312 48.5469 11.8748 49.2803C12.6127 50.0193 13.2712 50.8485 14.0318 51.5593C14.7867 52.2757 15.6098 52.9188 16.4669 53.528C17.324 54.1316 18.1641 54.7578 18.9645 55.4234C19.7762 56.0778 20.5822 56.7378 21.3599 57.4373C22.8925 58.8532 24.3683 60.3255 25.6909 61.9727L25.6171 62.0573C23.812 60.9517 22.1545 59.6768 20.5595 58.3398C19.7705 57.6573 19.0099 56.9465 18.2549 56.2244C17.4943 55.5137 16.7677 54.7634 16.0582 53.9906C15.3487 53.2234 14.5994 52.4901 13.7934 51.8357C12.9873 51.17 12.0848 50.6229 11.2561 49.9854C10.4273 49.348 9.67239 48.6316 8.92879 47.8982C8.19088 47.1592 7.47566 46.3977 6.83424 45.5515L6.90236 45.4669Z" fill="url(#paint12_linear)"/>
<path d="M3.79743 52.287C4.57508 52.6819 5.27327 53.167 5.94875 53.669C6.62422 54.1767 7.28267 54.707 7.87301 55.3162C8.45767 55.9255 8.96853 56.6193 9.58157 57.2004C10.1889 57.787 10.8644 58.3004 11.5683 58.7742C12.2778 59.2481 12.9646 59.7445 13.6174 60.2747C14.2815 60.7937 14.9343 61.3296 15.5644 61.8937C16.7961 63.0445 17.9768 64.2573 18.9985 65.6394L18.9247 65.724C17.4149 64.8835 16.0639 63.8681 14.7583 62.7963C14.1169 62.2491 13.5039 61.6681 12.9022 61.0758C12.2892 60.4947 11.7102 59.8799 11.1539 59.2368C10.592 58.5993 9.99594 58.0014 9.33749 57.4711C8.68472 56.9409 7.92409 56.5178 7.24862 56.0157C6.57314 55.508 5.9601 54.927 5.36976 54.3234C4.78511 53.7142 4.2118 53.088 3.72364 52.366L3.79743 52.287Z" fill="url(#paint13_linear)"/>
<path d="M61.9396 61.9784C60.8384 63.2082 59.5442 64.263 58.0911 65.1092C56.6323 65.9384 55.0032 66.559 53.2776 66.8072C51.5577 67.0497 49.747 66.9313 48.0611 66.3784C46.3696 65.8369 44.8086 64.9061 43.5314 63.6877C42.2599 62.4635 41.2779 60.9799 40.6309 59.3835C39.9894 57.7927 39.6375 56.1117 39.5807 54.4307C39.4388 51.0799 40.4719 47.6896 42.6005 44.9819C43.6677 43.6393 45.0073 42.466 46.5626 41.6311C48.1122 40.7906 49.8548 40.2942 51.6258 40.1418C55.1678 39.8203 58.8972 40.988 61.5707 43.408C62.9046 44.6096 63.9945 46.0762 64.721 47.7009C65.4476 49.3255 65.7768 51.1024 65.7314 52.8342C65.6236 56.3373 64.1193 59.5302 61.9396 61.9784ZM61.7694 61.8317C62.8422 60.6133 63.6255 59.1522 64.0228 57.6066C64.4372 56.0666 64.4656 54.4532 64.2215 52.9358C63.9774 51.4127 63.4552 49.9742 62.74 48.6655C62.0305 47.3568 61.0882 46.1834 59.9643 45.2188C57.7222 43.2896 54.7762 42.1726 51.7564 42.2798C48.7536 42.3926 45.7679 43.6224 43.5314 45.8111C42.4246 46.9111 41.5164 48.2424 40.9658 49.726C40.4038 51.204 40.1711 52.8173 40.3073 54.3968C40.4549 55.9763 40.9544 57.5107 41.7548 58.8476C42.5494 60.1902 43.5939 61.341 44.7802 62.283C47.1586 64.1672 50.0705 65.2559 53.1811 65.3743C54.7308 65.4195 56.3371 65.1938 57.83 64.5902C59.3342 64.0036 60.6965 63.0446 61.7694 61.8317Z" fill="url(#paint14_linear)"/>
<defs>
<linearGradient id="paint0_linear" x1="2.58536" y1="19.2998" x2="29.9328" y2="19.2998" gradientUnits="userSpaceOnUse">
<stop stop-color="#BAF772"/>
<stop offset="1" stop-color="#047524"/>
</linearGradient>
<linearGradient id="paint1_linear" x1="38.9638" y1="20.0792" x2="66.3113" y2="20.0792" gradientUnits="userSpaceOnUse">
<stop stop-color="#AF0036"/>
<stop offset="1" stop-color="#D54E4E"/>
</linearGradient>
<linearGradient id="paint2_linear" x1="10.1571" y1="20.2071" x2="11.292" y2="20.2071" gradientUnits="userSpaceOnUse">
<stop stop-color="#BAF772"/>
<stop offset="1" stop-color="#047524"/>
</linearGradient>
<linearGradient id="paint3_linear" x1="4.55329" y1="20.2071" x2="5.68821" y2="20.2071" gradientUnits="userSpaceOnUse">
<stop stop-color="#BAF772"/>
<stop offset="1" stop-color="#047524"/>
</linearGradient>
<linearGradient id="paint4_linear" x1="21.2954" y1="20.2071" x2="22.4304" y2="20.2071" gradientUnits="userSpaceOnUse">
<stop stop-color="#BAF772"/>
<stop offset="1" stop-color="#047524"/>
</linearGradient>
<linearGradient id="paint5_linear" x1="27.5483" y1="20.2071" x2="28.6832" y2="20.2071" gradientUnits="userSpaceOnUse">
<stop stop-color="#BAF772"/>
<stop offset="1" stop-color="#047524"/>
</linearGradient>
<linearGradient id="paint6_linear" x1="15.6916" y1="20.2071" x2="16.8265" y2="20.2071" gradientUnits="userSpaceOnUse">
<stop stop-color="#BAF772"/>
<stop offset="1" stop-color="#047524"/>
</linearGradient>
<linearGradient id="paint7_linear" x1="42.0287" y1="13.5385" x2="62.8981" y2="13.5385" gradientUnits="userSpaceOnUse">
<stop stop-color="#AF0036"/>
<stop offset="1" stop-color="#D54E4E"/>
</linearGradient>
<linearGradient id="paint8_linear" x1="40.0991" y1="20.207" x2="65.176" y2="20.207" gradientUnits="userSpaceOnUse">
<stop stop-color="#AF0036"/>
<stop offset="1" stop-color="#D54E4E"/>
</linearGradient>
<linearGradient id="paint9_linear" x1="42.3185" y1="27.3652" x2="62.6083" y2="27.3652" gradientUnits="userSpaceOnUse">
<stop stop-color="#AF0036"/>
<stop offset="1" stop-color="#D54E4E"/>
</linearGradient>
<linearGradient id="paint10_linear" x1="6.10011" y1="44.6649" x2="26.4765" y2="62.7921" gradientUnits="userSpaceOnUse">
<stop stop-color="#AF0036"/>
<stop offset="1" stop-color="#D54E4E"/>
</linearGradient>
<linearGradient id="paint11_linear" x1="12.7555" y1="41.7822" x2="28.3052" y2="55.6155" gradientUnits="userSpaceOnUse">
<stop stop-color="#AF0036"/>
<stop offset="1" stop-color="#D54E4E"/>
</linearGradient>
<linearGradient id="paint12_linear" x1="6.86541" y1="45.5079" x2="25.5501" y2="62.1302" gradientUnits="userSpaceOnUse">
<stop stop-color="#AF0036"/>
<stop offset="1" stop-color="#D54E4E"/>
</linearGradient>
<linearGradient id="paint13_linear" x1="3.75736" y1="52.3316" x2="18.8751" y2="65.7807" gradientUnits="userSpaceOnUse">
<stop stop-color="#AF0036"/>
<stop offset="1" stop-color="#D54E4E"/>
</linearGradient>
<linearGradient id="paint14_linear" x1="42.3044" y1="44.5561" x2="62.6808" y2="62.6834" gradientUnits="userSpaceOnUse">
<stop stop-color="#BAF772"/>
<stop offset="1" stop-color="#047524"/>
</linearGradient>
</defs>
</svg>
