<svg width="70" height="70" viewBox="0 0 70 70" fill="none" xmlns="http://www.w3.org/2000/svg">
<path d="M31.7853 16.5813C32.9587 15.0971 34.2348 13.7257 35.5705 12.4196C36.9062 11.1136 38.3067 9.87871 39.7938 8.76855C41.2808 7.65838 42.849 6.65507 44.5253 5.87142C46.1962 5.08184 47.9807 4.50004 49.8463 4.34568C51.7065 4.17352 53.6423 4.54753 55.3565 5.45585C55.7945 5.6577 56.1785 5.97234 56.5948 6.22762C56.9734 6.51259 57.3411 6.80349 57.7088 7.09439C58.4334 7.694 59.1472 8.31735 59.8231 8.9882C62.5377 11.6716 64.8575 14.7884 66.3878 18.576L66.3662 18.5226C66.6366 19.2231 66.7771 19.8287 66.9015 20.4936C66.9664 20.8201 67.0151 21.1466 67.0475 21.4732C67.0908 21.7997 67.1232 22.1262 67.134 22.4587C67.1827 23.1176 67.1557 23.7766 67.134 24.4296C67.0583 25.0827 67.0259 25.7357 66.8853 26.371C66.4311 28.9356 65.4577 31.3459 64.1707 33.4772C62.8892 35.6144 61.2939 37.5083 59.6717 39.2537C58.0494 41.0228 56.4326 42.792 54.7941 44.5433L44.9958 55.0513L35.1812 65.5534L34.8351 65.9215L34.4674 65.5415C29.0328 59.8957 23.6578 54.1905 18.299 48.4675L10.2526 39.8948L8.25185 37.7339L7.25146 36.6534C6.86753 36.2437 6.57012 35.8163 6.2673 35.3889C5.08306 33.6672 4.15297 31.7615 3.50948 29.7252C2.86058 27.7008 2.50909 25.5457 2.49827 23.3907C2.47664 21.2357 2.83354 19.0866 3.4554 17.0681C4.08808 15.0496 4.98031 13.1499 6.04018 11.3926L6.44034 10.7336L6.89457 10.0924C7.18116 9.65312 7.54347 9.27317 7.87873 8.87541C8.23022 8.49546 8.60874 8.14519 8.99267 7.80679C9.39824 7.49215 9.78217 7.15969 10.2202 6.90441C11.9127 5.78237 13.827 5.20057 15.725 4.92154C17.6338 4.64845 19.5535 4.71376 21.4299 4.94529C23.3117 5.1887 25.1611 5.64582 26.9672 6.21575C28.7733 6.79755 30.5415 7.49215 32.2449 8.36485L32.18 8.52514C28.6922 7.10032 25.0313 6.13264 21.3542 5.81799C19.5157 5.67551 17.6663 5.69926 15.8764 6.03765C14.9788 6.20388 14.1082 6.45916 13.2592 6.78568C12.4264 7.14188 11.6045 7.53371 10.8637 8.06801C10.4743 8.30548 10.1391 8.62013 9.78217 8.90509C9.4469 9.21974 9.11705 9.54032 8.80882 9.88465C8.52222 10.2527 8.20318 10.5911 7.95984 10.9948L7.5705 11.5944L7.2082 12.2297C6.24026 13.9157 5.45077 15.7205 4.91002 17.5965C4.38008 19.4725 4.11512 21.4316 4.14215 23.3788C4.1746 25.3261 4.50986 27.2674 5.1155 29.1019C5.72655 30.9363 6.58634 32.6876 7.64621 34.2431C7.91118 34.623 8.19237 35.0148 8.47896 35.3176L9.47394 36.3981L11.4693 38.5591L19.4021 47.2564C24.6906 53.0506 29.9683 58.8627 35.192 64.7401L34.4782 64.7282C37.8741 61.3858 41.2484 58.0078 44.5902 54.5942C47.9266 51.1746 51.2036 47.6898 54.421 44.1396C56.0216 42.3526 57.6114 40.5597 59.158 38.7194C60.7316 36.8908 62.1754 35.0089 63.3326 32.9073C64.4898 30.8176 65.3117 28.5141 65.647 26.1394C65.7551 25.5517 65.7605 24.9461 65.8146 24.3525C65.8092 23.7588 65.8308 23.1592 65.7714 22.5655C65.7605 22.2687 65.7227 21.9718 65.6794 21.6809C65.647 21.3841 65.5929 21.0991 65.5334 20.8142C65.4253 20.2561 65.2522 19.6446 65.0684 19.1994L65.0576 19.1756L65.0467 19.146C64.7385 18.3386 64.3005 17.4777 63.8571 16.6822C63.4137 15.8689 62.9054 15.0971 62.3863 14.3372C61.3372 12.8233 60.1638 11.4104 58.8768 10.1281C58.2387 9.48095 57.5628 8.88134 56.876 8.29954L55.827 7.45059C55.4701 7.225 55.1348 6.94003 54.7563 6.75599C53.28 5.93079 51.6037 5.55084 49.9112 5.66957C48.2186 5.74675 46.5261 6.22169 44.9146 6.91628C43.2978 7.61088 41.7296 8.48952 40.2372 9.51657C37.2414 11.5469 34.462 14.0047 31.9042 16.7L31.7853 16.5813Z" fill="url(#paint0_linear)"/>
<path d="M28.5354 20.078C28.6219 20.6776 28.557 21.111 28.4434 21.491C28.3245 21.865 28.146 22.1737 27.9189 22.429C27.6918 22.6843 27.4052 22.8802 27.0645 23.0048C26.7185 23.1295 26.3237 23.2008 25.7721 23.0998C25.6856 22.5002 25.7505 22.0668 25.8587 21.6809C25.9776 21.3069 26.1561 20.9982 26.3832 20.7429C26.6157 20.4936 26.8969 20.2977 27.2376 20.1671C27.5945 20.0543 27.9892 19.983 28.5354 20.078Z" fill="url(#paint1_linear)"/>
<path d="M32.7694 55.2413C33.2993 55.081 33.6887 55.0988 34.0402 55.176C34.3862 55.2591 34.6782 55.4134 34.9216 55.6331C35.1703 55.8527 35.365 56.1318 35.511 56.488C35.6516 56.8501 35.7489 57.2657 35.7111 57.8712C35.1811 58.0375 34.7918 58.0137 34.4403 57.9365C34.0942 57.8534 33.8022 57.6991 33.5589 57.4794C33.3155 57.2597 33.1155 56.9748 32.9695 56.6245C32.8289 56.2624 32.7315 55.8468 32.7694 55.2413Z" fill="url(#paint2_linear)"/>
<path d="M36.9116 51.2399C37.4415 51.0796 37.8308 51.0974 38.1823 51.1746C38.5284 51.2577 38.8204 51.4121 39.0637 51.6317C39.3125 51.8514 39.5072 52.1304 39.6532 52.4866C39.7937 52.8488 39.8911 53.2643 39.8532 53.8699C39.3233 54.0361 38.934 54.0124 38.5825 53.9352C38.2364 53.8521 37.9444 53.6977 37.701 53.4781C37.4577 53.2584 37.2576 52.9734 37.1116 52.6232C36.9764 52.2551 36.8737 51.8395 36.9116 51.2399Z" fill="url(#paint3_linear)"/>
<path d="M40.394 46.912C40.924 46.7517 41.3133 46.7696 41.6648 46.8467C42.0109 46.9298 42.3029 47.0842 42.5462 47.3039C42.795 47.5235 42.9896 47.8025 43.1356 48.1587C43.2762 48.5209 43.3736 48.9365 43.3357 49.542C42.8058 49.7082 42.4164 49.6845 42.0649 49.6073C41.7189 49.5242 41.4269 49.3698 41.1835 49.1502C40.9402 48.9305 40.7401 48.6456 40.5941 48.2953C40.4535 47.9332 40.3562 47.5116 40.394 46.912Z" fill="url(#paint4_linear)"/>
<path d="M44.5361 42.9047C45.0661 42.7444 45.4554 42.7622 45.8069 42.8394C46.153 42.9225 46.445 43.0769 46.6883 43.2965C46.9371 43.5162 47.1317 43.7952 47.2777 44.1514C47.4183 44.5136 47.5157 44.9291 47.4778 45.5347C46.9479 45.7009 46.5585 45.6772 46.207 45.6C45.861 45.5169 45.569 45.3625 45.3256 45.1429C45.0823 44.9232 44.8822 44.6382 44.7362 44.288C44.601 43.9258 44.4983 43.5043 44.5361 42.9047Z" fill="url(#paint5_linear)"/>
<path d="M48.2457 38.5828C48.7756 38.4225 49.1649 38.4403 49.5164 38.5175C49.8625 38.6006 50.1545 38.755 50.3978 38.9746C50.6466 39.1943 50.8413 39.4733 50.9873 39.8295C51.1279 40.1917 51.2252 40.6072 51.1873 41.2128C50.6574 41.379 50.2681 41.3553 49.9166 41.2781C49.5705 41.195 49.2785 41.0406 49.0352 40.821C48.7918 40.6013 48.5917 40.3163 48.4457 39.9661C48.3105 39.598 48.2078 39.1824 48.2457 38.5828Z" fill="url(#paint6_linear)"/>
<path d="M52.3932 34.5755C52.9232 34.4152 53.3125 34.433 53.664 34.5102C54.0101 34.5933 54.3021 34.7477 54.5454 34.9673C54.7942 35.187 54.9888 35.466 55.1348 35.8222C55.2754 36.1843 55.3728 36.5999 55.3349 37.2055C54.805 37.3717 54.4156 37.3479 54.0641 37.2708C53.7181 37.1877 53.4261 37.0333 53.1827 36.8136C52.9394 36.594 52.7393 36.309 52.5933 35.9587C52.4527 35.5907 52.3554 35.1751 52.3932 34.5755Z" fill="url(#paint7_linear)"/>
<path d="M55.9351 30.129C56.465 29.9687 56.8544 29.9865 57.2059 30.0637C57.552 30.1468 57.844 30.3011 58.0873 30.5208C58.336 30.7404 58.5307 31.0195 58.6767 31.3757C58.8173 31.7378 58.9146 32.1534 58.8768 32.7589C58.3469 32.9252 57.9575 32.9014 57.606 32.8242C57.2599 32.7411 56.9679 32.5868 56.7246 32.3671C56.4813 32.1474 56.2812 31.8625 56.1352 31.5122C56 31.1441 55.8973 30.7286 55.9351 30.129Z" fill="url(#paint8_linear)"/>
<defs>
<linearGradient id="paint0_linear" x1="2.50006" y1="35.1197" x2="67.3031" y2="35.1197" gradientUnits="userSpaceOnUse">
<stop stop-color="#AF0036"/>
<stop offset="1" stop-color="#D54E4E"/>
</linearGradient>
<linearGradient id="paint1_linear" x1="24.6904" y1="21.595" x2="29.6147" y2="21.595" gradientUnits="userSpaceOnUse">
<stop stop-color="#BAF772"/>
<stop offset="1" stop-color="#047524"/>
</linearGradient>
<linearGradient id="paint2_linear" x1="31.6856" y1="56.559" x2="36.794" y2="56.559" gradientUnits="userSpaceOnUse">
<stop stop-color="#BAF772"/>
<stop offset="1" stop-color="#047524"/>
</linearGradient>
<linearGradient id="paint3_linear" x1="35.8305" y1="52.5519" x2="40.9389" y2="52.5519" gradientUnits="userSpaceOnUse">
<stop stop-color="#BAF772"/>
<stop offset="1" stop-color="#047524"/>
</linearGradient>
<linearGradient id="paint4_linear" x1="39.3103" y1="48.2286" x2="44.4187" y2="48.2286" gradientUnits="userSpaceOnUse">
<stop stop-color="#BAF772"/>
<stop offset="1" stop-color="#047524"/>
</linearGradient>
<linearGradient id="paint5_linear" x1="43.4552" y1="44.2215" x2="48.5636" y2="44.2215" gradientUnits="userSpaceOnUse">
<stop stop-color="#BAF772"/>
<stop offset="1" stop-color="#047524"/>
</linearGradient>
<linearGradient id="paint6_linear" x1="47.1651" y1="39.8983" x2="52.2734" y2="39.8983" gradientUnits="userSpaceOnUse">
<stop stop-color="#BAF772"/>
<stop offset="1" stop-color="#047524"/>
</linearGradient>
<linearGradient id="paint7_linear" x1="51.3101" y1="35.8911" x2="56.4184" y2="35.8911" gradientUnits="userSpaceOnUse">
<stop stop-color="#BAF772"/>
<stop offset="1" stop-color="#047524"/>
</linearGradient>
<linearGradient id="paint8_linear" x1="54.8552" y1="31.4448" x2="59.9635" y2="31.4448" gradientUnits="userSpaceOnUse">
<stop stop-color="#BAF772"/>
<stop offset="1" stop-color="#047524"/>
</linearGradient>
</defs>
</svg>
