<svg width="70" height="70" viewBox="0 0 70 70" fill="none" xmlns="http://www.w3.org/2000/svg">
<path d="M3.81406 40.735C5.8373 40.3088 7.87111 39.9957 9.91548 39.7235C11.9546 39.4463 13.9989 39.2307 16.0539 39.0458C18.1088 38.8764 20.1532 38.7737 22.2663 38.861C22.4089 38.8713 22.5251 38.8764 22.6889 38.8969C22.7628 38.9072 22.8209 38.9021 22.9953 38.9585L23.1009 38.9945L23.1432 39.0202L23.233 39.0715L23.8933 39.4822L25.1981 40.278C26.075 40.7915 26.9678 41.2895 27.8764 41.7464C29.6936 42.6654 31.5795 43.4715 33.5182 44.0825C34.4797 44.4008 35.4675 44.637 36.4342 44.8116L37.1527 44.8937C37.3904 44.9194 37.607 44.8988 37.8341 44.904C38.0507 44.9091 38.373 44.868 38.6318 44.8783C38.9065 44.8783 39.1812 44.8886 39.4559 44.9091C40.5494 44.9913 41.6271 45.212 42.6783 45.6638C43.2013 45.8949 43.7243 46.1824 44.1891 46.6342C44.4268 46.8498 44.6329 47.1322 44.7966 47.4454C44.9445 47.7689 45.0608 48.1334 45.0502 48.5031C45.066 49.2475 44.7597 49.8739 44.4163 50.3616C44.0623 50.8494 43.6556 51.2499 43.2383 51.6144C42.3983 52.3383 41.4739 52.8774 40.5494 53.3857L40.6392 53.3292C40.449 53.4627 40.3223 53.5295 40.1691 53.6065C40.0211 53.6886 39.8732 53.7502 39.72 53.817C39.4189 53.9402 39.1178 54.0532 38.8061 54.1302C38.1934 54.3099 37.5647 54.3869 36.9414 54.4382C35.6894 54.5204 34.4585 54.3304 33.3016 54.0172C32.1289 53.7143 31.0512 53.1957 30.0106 52.6515C29.5087 52.3486 29.0174 52.0354 28.5262 51.7171C28.056 51.3731 27.5964 51.024 27.1421 50.6697L27.2319 50.5414C27.7496 50.7929 28.262 51.0548 28.7639 51.3218L30.3328 51.9943C31.3999 52.3743 32.4617 52.7491 33.5552 52.9134C34.6434 53.1085 35.7422 53.1649 36.7987 53.0314C37.3217 52.9544 37.8447 52.8569 38.3307 52.6823C38.579 52.6053 38.8114 52.4975 39.0386 52.3999C39.1495 52.3435 39.2657 52.2921 39.3661 52.2305C39.4665 52.1792 39.588 52.097 39.6302 52.0662L39.6725 52.0354L39.7253 52.0046C40.5758 51.5066 41.3893 50.9572 42.1025 50.3668C42.4511 50.0639 42.7681 49.7507 43.0111 49.4221C43.2435 49.0935 43.3914 48.7649 43.3914 48.5031C43.4548 47.9948 42.8209 47.3889 42.0074 46.9987C41.1939 46.6034 40.243 46.3621 39.2921 46.2337C39.0544 46.2029 38.8167 46.1773 38.579 46.167C38.3254 46.1465 38.1352 46.1567 37.8341 46.1311C37.5489 46.1054 37.2478 46.1002 36.9783 46.0489L36.1807 45.8743C35.1506 45.5766 34.168 45.2223 33.2224 44.7962C31.3207 43.9695 29.4876 43.0608 27.644 42.1674C26.7248 41.7208 25.795 41.2792 24.8653 40.8428L23.4707 40.1908L22.7839 39.8724L22.7047 39.8365L22.6624 39.816C22.6624 39.8211 22.6677 39.8262 22.673 39.8314C22.7206 39.8468 22.6519 39.8416 22.5991 39.8416C22.504 39.8365 22.3666 39.8519 22.2504 39.857C20.2483 40.0265 18.1934 40.278 16.1543 40.4115C12.0602 40.6888 7.95563 40.9352 3.81934 40.8787L3.81406 40.735Z" fill="url(#paint0_linear)"/>
<path d="M46.0645 48.2515C47.158 47.9383 48.2515 47.6507 49.3503 47.3632C50.449 47.0706 51.5425 46.7831 52.6466 46.5161C54.8442 45.9667 57.0523 45.4379 59.2605 44.9347L59.308 44.9245H59.3608C60.3117 44.8937 61.2045 44.9655 62.1342 45.1915C62.5938 45.3147 63.0534 45.479 63.5024 45.7305C63.9409 45.9821 64.374 46.3313 64.6751 46.8036C64.9762 47.276 65.1242 47.8356 65.1242 48.3541C65.1242 48.8727 65.0185 49.3604 64.8653 49.8123C64.5484 50.7056 64.0729 51.4757 63.5658 52.2048L63.4707 52.3434L63.3281 52.4204C61.4105 53.4165 59.4718 54.3663 57.5278 55.3213C55.589 56.2814 53.6397 57.2209 51.7116 58.1964C49.7834 59.172 47.8711 60.1783 45.9799 61.2102C44.0782 62.2371 42.2029 63.2999 40.3328 64.3781L40.3223 64.3832L40.3117 64.3883C38.3201 65.1995 36.1701 65.3433 34.0676 65.0044C33.0164 64.8453 32.0074 64.491 31.0407 64.0803L30.3223 63.7465L29.6514 63.4026L28.3096 62.7094L22.9636 59.901C21.1833 58.9614 19.3925 58.0373 17.6281 57.0772L17.8764 57.1645C16.7776 56.9745 15.5732 56.8924 14.4374 56.9283C13.8616 56.9437 13.2964 56.995 12.747 57.0823C12.4723 57.1285 12.2029 57.185 11.9387 57.262L11.0724 57.5033C9.90493 57.8371 8.73219 58.1656 7.55416 58.484L4.01481 59.4543L3.11148 59.7008L3.13261 58.8126C3.19072 56.3071 3.27524 53.8016 3.37561 51.2961C3.42316 50.0433 3.46542 48.7905 3.53409 47.5378C3.59748 46.285 3.65559 45.0323 3.74011 43.7795H3.89859C3.98311 45.0323 4.04122 46.285 4.10461 47.5378C4.17329 48.7905 4.21555 50.0433 4.26309 51.2961C4.36346 53.8016 4.44798 56.3071 4.50609 58.8126L3.62389 58.1708L7.09458 57.0772C8.25147 56.7127 9.40836 56.3533 10.5705 56.0041L11.4527 55.7372C11.775 55.6396 12.0972 55.5677 12.4195 55.501C13.0639 55.3829 13.7137 55.311 14.3582 55.2853C15.6524 55.2494 16.8938 55.3316 18.1934 55.5575L18.3149 55.578L18.4416 55.6447C20.2113 56.5997 21.9546 57.5957 23.7137 58.5661L28.9805 61.5029L30.2906 62.2474L30.9456 62.617L31.5848 62.9456C32.4459 63.3615 33.3492 63.7106 34.2895 63.9211C35.2245 64.1367 36.1965 64.2394 37.1685 64.2138C38.13 64.1932 39.1284 64.0238 40 63.7157L39.9736 63.726C41.907 62.7608 43.8352 61.7853 45.7422 60.7738C47.6545 59.7675 49.551 58.7355 51.4263 57.6728C53.3069 56.61 55.1611 55.5061 57.0312 54.4279C58.896 53.3446 60.7607 52.2562 62.6519 51.2139L62.4142 51.4244C62.8685 50.757 63.2805 50.0638 63.5182 49.3656C63.6292 49.0165 63.7031 48.6725 63.7137 48.349C63.719 48.0255 63.645 47.7432 63.4971 47.4967C63.196 46.9987 62.5251 46.6393 61.7803 46.4339C61.0407 46.2234 60.1955 46.1208 59.4189 46.1208L59.5246 46.1053C57.3006 46.5366 55.0661 46.9371 52.8315 47.3222C51.7169 47.5173 50.5917 47.697 49.4718 47.8715C48.3518 48.0512 47.2319 48.2309 46.1014 48.3849L46.0645 48.2515Z" fill="url(#paint1_linear)"/>
<path d="M53.476 28.1201C53.4654 29.6193 53.2224 31.1134 52.7311 32.5612C52.2293 33.9988 51.4791 35.4005 50.4279 36.6019C49.3766 37.7982 48.0401 38.7993 46.524 39.436C45.0132 40.0829 43.3386 40.3807 41.701 40.3139C40.0581 40.242 38.4469 39.8159 37.01 39.1177C35.5732 38.4194 34.2842 37.4798 33.2065 36.3708C31.0301 34.1683 29.6513 31.2418 29.4506 28.115C29.3661 26.5593 29.5668 24.9575 30.1321 23.4583C30.692 21.9591 31.5953 20.5728 32.7364 19.4074C35.0079 17.0662 38.3307 15.6286 41.6957 15.6748C43.3703 15.6953 45.0396 16.0445 46.5557 16.717C48.0718 17.3896 49.3978 18.4062 50.4437 19.6127C52.5409 22.0669 53.476 25.1423 53.476 28.1201ZM53.2647 28.1201C53.2541 26.6466 52.8949 25.1782 52.2134 23.8895C51.5478 22.5906 50.5652 21.4765 49.4559 20.5831C48.3413 19.6897 47.084 19.0223 45.7739 18.5602C44.4638 18.093 43.085 17.8568 41.701 17.8722C38.9435 17.8979 36.1965 18.9042 34.1574 20.7833C32.1395 22.6573 30.8188 25.2861 30.6128 28.115C30.523 29.5269 30.7184 30.9799 31.2573 32.3199C31.7855 33.6651 32.6202 34.9025 33.6978 35.8985C34.7808 36.8894 36.0803 37.6339 37.4643 38.0651C38.8484 38.5067 40.2958 38.6658 41.7063 38.594C44.5325 38.4553 47.2372 37.449 49.4823 35.6675C50.5916 34.769 51.5689 33.6548 52.2345 32.3507C52.9107 31.0621 53.2699 29.5937 53.2647 28.1201Z" fill="url(#paint2_linear)"/>
<path d="M34.2948 6.28946C34.8178 5.08805 35.6894 4.015 36.7776 3.17298C37.8764 2.34637 39.1971 1.76107 40.6022 1.51463C42.0021 1.26819 43.476 1.35033 44.8548 1.75594C46.2335 2.17181 47.5066 2.91114 48.5579 3.87637C49.6038 4.85187 50.3857 6.07895 50.8611 7.40358C51.3101 8.73335 51.4844 10.1555 51.2573 11.5264C50.8822 14.2834 49.0069 16.7222 46.5663 17.8158C48.6371 16.1677 49.8997 13.8111 50.0212 11.4031C50.0793 10.2017 49.8997 9.00033 49.4454 7.90674C49.0069 6.81315 48.3413 5.79144 47.4538 4.9905C45.7264 3.33728 43.2383 2.49527 40.7713 2.7109C39.5404 2.82386 38.3202 3.18325 37.2108 3.79936C36.1015 4.4052 35.1189 5.26261 34.2948 6.28946Z" fill="url(#paint3_linear)"/>
<path d="M29.5616 25.0602C25.7898 24.978 22.1131 21.9489 21.3999 18.1495C21.2097 17.21 21.2256 16.2499 21.3629 15.3257C21.4739 14.3964 21.7486 13.5082 22.0655 12.6508C22.3772 11.7882 22.8209 10.9822 23.3069 10.2018C23.8194 9.43162 24.4163 8.71796 25.0978 8.05564C27.8236 5.35504 32.4987 4.67219 36.1015 6.39216C37.0048 6.80803 37.8289 7.3882 38.5367 8.06078C39.2657 8.71796 39.8521 9.50349 40.3223 10.3352C41.2679 12.0039 41.6165 13.9446 41.3365 15.7364C41.3312 15.7826 41.2837 15.8135 41.2362 15.8083C41.1992 15.8032 41.1675 15.7724 41.1622 15.7416V15.7364C40.9773 14.8585 40.7766 14.0165 40.4279 13.2361C40.074 12.4608 39.6831 11.7112 39.1548 11.0592C38.1353 9.73967 36.804 8.69229 35.2985 8.04538C34.934 7.85541 34.5325 7.75273 34.1522 7.60383C33.7507 7.51142 33.3651 7.37279 32.953 7.31632C32.1448 7.14689 31.3048 7.13148 30.4755 7.17769C29.6408 7.23417 28.8273 7.43954 28.019 7.68598C27.2267 7.9735 26.4395 8.31749 25.7158 8.78984C25.008 9.27759 24.3318 9.84749 23.8088 10.5406C23.2964 11.2389 22.8526 11.9987 22.6149 12.8356C22.3825 13.6673 22.261 14.5248 22.3455 15.3719C22.3983 16.2191 22.5674 17.0405 22.8368 17.8209C23.0904 18.6013 23.4232 19.3509 23.8088 20.0749C24.2208 20.7885 24.7227 21.4508 25.2932 22.0567C26.4343 23.294 27.9187 24.2079 29.6091 24.901C29.6567 24.9164 29.6778 24.9678 29.6567 25.014C29.6302 25.0397 29.5985 25.0602 29.5616 25.0602Z" fill="url(#paint4_linear)"/>
<path d="M10.7713 44.2827C10.4279 44.483 10.0793 44.5857 9.73062 44.6627C9.38197 44.7345 9.03332 44.7756 8.68466 44.7808C8.33601 44.7859 7.98736 44.7602 7.6387 44.6986C7.29005 44.6319 6.9414 44.5394 6.58746 44.3495C6.93083 44.1492 7.27949 44.0466 7.62814 43.9696C7.97679 43.8977 8.32545 43.8566 8.6741 43.8515C9.02275 43.8463 9.3714 43.872 9.72006 43.9336C10.0687 44.0004 10.4174 44.0928 10.7713 44.2827Z" fill="url(#paint5_linear)"/>
<path d="M10.7713 48.4928C10.4279 48.7136 10.0792 48.8265 9.73059 48.9138C9.38194 48.996 9.03328 49.037 8.68991 49.0422C8.34126 49.0473 7.99261 49.0216 7.64395 48.9497C7.2953 48.8727 6.94137 48.77 6.59271 48.5647C6.93608 48.3439 7.28474 48.231 7.63339 48.1437C7.98204 48.0615 8.33069 48.0205 8.67407 48.0153C9.02272 48.0102 9.37137 48.041 9.72002 48.1077C10.0687 48.1847 10.4173 48.2823 10.7713 48.4928Z" fill="url(#paint6_linear)"/>
<path d="M10.8664 54.1455C10.523 54.3663 10.1743 54.4792 9.82568 54.5665C9.47703 54.6487 9.12837 54.6897 8.785 54.6949C8.43635 54.7 8.0877 54.6743 7.73905 54.6025C7.39039 54.5254 7.03646 54.4228 6.68781 54.2174C7.03118 53.9966 7.37983 53.8837 7.72848 53.7964C8.07713 53.7142 8.42579 53.6732 8.76916 53.668C9.11781 53.6629 9.46646 53.6937 9.81512 53.7604C10.1638 53.8375 10.5177 53.9401 10.8664 54.1455Z" fill="url(#paint7_linear)"/>
<path d="M38.2885 23.294C39.0491 23.1708 40.0476 23.063 41.3207 23.063C42.8843 23.063 44.0254 23.4172 44.7544 24.0539C45.4094 24.6187 45.8268 25.4812 45.8268 26.544C45.8268 27.6222 45.4992 28.4693 44.8812 29.0854C44.0254 29.948 42.6836 30.3895 41.1411 30.3895C40.6709 30.3895 40.2325 30.3741 39.868 30.2817V35.0463H38.2885V23.294ZM39.868 29.029C40.2113 29.1162 40.6498 29.1522 41.178 29.1522C43.0851 29.1522 44.2472 28.2332 44.2472 26.6261C44.2472 25.0397 43.0851 24.2798 41.3577 24.2798C40.6656 24.2798 40.1427 24.3311 39.868 24.403V29.029Z" fill="#177F00"/>
<path d="M36.9097 32.0735H44.2367" stroke="url(#paint8_linear)" stroke-width="2" stroke-miterlimit="10"/>
<defs>
<linearGradient id="paint0_linear" x1="3.74417" y1="46.6422" x2="45.0273" y2="46.6422" gradientUnits="userSpaceOnUse">
<stop stop-color="#AF0036"/>
<stop offset="1" stop-color="#D54E4E"/>
</linearGradient>
<linearGradient id="paint1_linear" x1="3.02907" y1="54.4789" x2="65.2111" y2="54.4789" gradientUnits="userSpaceOnUse">
<stop stop-color="#AF0036"/>
<stop offset="1" stop-color="#D54E4E"/>
</linearGradient>
<linearGradient id="paint2_linear" x1="28.9765" y1="28.0038" x2="54.4273" y2="28.0038" gradientUnits="userSpaceOnUse">
<stop stop-color="#BAF772"/>
<stop offset="1" stop-color="#047524"/>
</linearGradient>
<linearGradient id="paint3_linear" x1="33.5001" y1="9.59544" x2="51.4887" y2="9.59544" gradientUnits="userSpaceOnUse">
<stop stop-color="#BAF772"/>
<stop offset="1" stop-color="#047524"/>
</linearGradient>
<linearGradient id="paint4_linear" x1="20.9457" y1="15.2543" x2="42.1262" y2="15.2543" gradientUnits="userSpaceOnUse">
<stop stop-color="#BAF772"/>
<stop offset="1" stop-color="#047524"/>
</linearGradient>
<linearGradient id="paint5_linear" x1="8.67262" y1="43.8511" x2="8.68774" y2="44.7778" gradientUnits="userSpaceOnUse">
<stop stop-color="#BAF772"/>
<stop offset="1" stop-color="#047524"/>
</linearGradient>
<linearGradient id="paint6_linear" x1="8.67174" y1="48.0129" x2="8.68846" y2="49.0394" gradientUnits="userSpaceOnUse">
<stop stop-color="#BAF772"/>
<stop offset="1" stop-color="#047524"/>
</linearGradient>
<linearGradient id="paint7_linear" x1="8.76932" y1="53.6678" x2="8.78603" y2="54.6942" gradientUnits="userSpaceOnUse">
<stop stop-color="#BAF772"/>
<stop offset="1" stop-color="#047524"/>
</linearGradient>
<linearGradient id="paint8_linear" x1="-nan" y1="-nan" x2="-nan" y2="-nan" gradientUnits="userSpaceOnUse">
<stop stop-color="#BAF772"/>
<stop offset="1" stop-color="#047524"/>
</linearGradient>
</defs>
</svg>
