<svg width="40" height="39" fill="none" xmlns="http://www.w3.org/2000/svg"><g filter="url(#filter0_d)"><path d="M31.229 38.25l-4.076.034c-1.36.04-2.716.054-4.076.118-2.716.098-5.432.25-8.147.363-1.36.058-2.716.132-4.072.161l-2.035.06c-.347 0-.666.014-1.032.01l-.577-.025-.577-.084c-1.53-.284-2.94-1.167-3.926-2.418-.994-1.245-1.515-2.879-1.496-4.482l.258-8.52.136-4.261.08-4.262c.004-1.417.028-2.84.018-4.262l-.009-2.128-.005-1.07.019-.559.075-.554a6.891 6.891 0 012.087-3.855A6.285 6.285 0 017.89.883C10.605.8 13.321.692 16.037.633 18.752.564 21.468.53 24.184.496l4.071-.05 2.036-.024c.347 0 .666-.014 1.032-.01l.59.025.587.088c1.567.295 3.011 1.187 4.024 2.462a7.434 7.434 0 011.59 4.596c-.032 2.84-.032 5.679-.098 8.519-.042 2.84-.16 5.679-.286 8.518l-.188 4.262-.094 2.129c-.018.358-.023.706-.042 1.069l-.047.554-.098.55c-.329 1.441-1.102 2.75-2.195 3.653-1.084.912-2.453 1.422-3.837 1.413zm0-.197a5.67 5.67 0 003.668-1.436c.994-.918 1.684-2.183 1.871-3.532l.057-.505.004-.505c-.004-.343-.023-.706-.032-1.06l-.094-2.128-.188-4.262c-.127-2.84-.244-5.679-.286-8.519-.066-2.84-.061-5.679-.099-8.518-.018-1.178-.408-2.345-1.13-3.257a5.071 5.071 0 00-2.852-1.79l-.417-.074-.432-.034c-.31-.015-.67-.01-1.003-.015l-2.036-.024-4.071-.05a644.795 644.795 0 01-8.148-.137c-2.716-.058-5.431-.166-8.147-.25A5.366 5.366 0 004.395 3.17c-1.004.814-1.721 2.015-1.98 3.33l-.08.495-.032.505c-.014.344-.005.706-.01 1.06l-.009 2.128c-.01 1.422.014 2.84.019 4.262l.08 4.262.136 4.262.258 8.519a5.742 5.742 0 001.22 3.369 5.325 5.325 0 002.95 1.84l.431.073.436.03c.315.014.671.009 1.009.019l2.035.059c1.356.029 2.716.102 4.072.161 2.715.113 5.431.265 8.147.363 1.36.064 2.716.079 4.076.118l4.076.03z" fill="url(#paint0_linear)"/></g><defs><linearGradient id="paint0_linear" x1="1.058" y1="19.706" x2="38.062" y2="19.706" gradientUnits="userSpaceOnUse"><stop stop-color="#AF0036"/><stop offset="1" stop-color="#D54E4E"/></linearGradient><filter id="filter0_d" x="-2.786" y=".411" width="44.9" height="46.585" filterUnits="userSpaceOnUse" color-interpolation-filters="sRGB"><feFlood flood-opacity="0" result="BackgroundImageFix"/><feColorMatrix in="SourceAlpha" values="0 0 0 0 0 0 0 0 0 0 0 0 0 0 0 0 0 0 127 0"/><feOffset dy="4"/><feGaussianBlur stdDeviation="2"/><feColorMatrix values="0 0 0 0 0 0 0 0 0 0 0 0 0 0 0 0 0 0 0.25 0"/><feBlend in2="BackgroundImageFix" result="effect1_dropShadow"/><feBlend in="SourceGraphic" in2="effect1_dropShadow" result="shape"/></filter></defs></svg>