<svg width="40" height="40" viewBox="0 0 40 40" fill="none" xmlns="http://www.w3.org/2000/svg">
<g clip-path="url(#clip0)">
<path d="M31.2289 39.2496L27.1529 39.284C25.7927 39.3232 24.4372 39.3379 23.0769 39.4017C20.3612 39.4997 17.6454 39.6518 14.9297 39.7646C13.5694 39.8234 12.2139 39.897 10.8584 39.9264L8.82273 39.9853C8.47563 39.9853 8.15668 40 7.79083 39.9951L7.21391 39.9706L6.63698 39.8872C5.1079 39.6027 3.69608 38.72 2.71109 37.4693C1.71672 36.2236 1.19608 34.5905 1.21485 32.9868L1.47282 24.4679L1.60884 20.206L1.68858 15.9441C1.69327 14.5267 1.71672 13.1045 1.70734 11.6822L1.69796 9.5537L1.69327 8.48455L1.71203 7.92545L1.78708 7.37126C2.04505 5.89995 2.78614 4.51692 3.87432 3.51643C4.96719 2.52084 6.40715 1.92741 7.88933 1.88327C10.6051 1.7999 13.3208 1.692 16.0366 1.63315C18.7524 1.56449 21.4681 1.53016 24.1839 1.49583L28.2552 1.44678L30.2908 1.42226C30.6379 1.42226 30.9569 1.40755 31.3227 1.41245L31.9137 1.43698L32.5 1.52525C34.0666 1.81952 35.5113 2.71211 36.5244 3.98725C37.5375 5.26238 38.1192 6.91515 38.1145 8.58264C38.0816 11.4223 38.0816 14.2619 38.016 17.1015C37.9738 19.9411 37.8565 22.7808 37.7299 25.6204L37.5422 29.8823L37.4484 32.0108C37.4297 32.3688 37.425 32.717 37.4062 33.0799L37.3593 33.6341L37.2608 34.1834C36.9325 35.6253 36.1586 36.9348 35.0657 37.8372C33.9822 38.7494 32.6126 39.2594 31.2289 39.2496ZM31.2289 39.0535C32.5657 39.0289 33.8884 38.5238 34.8968 37.6165C35.8912 36.6994 36.5807 35.434 36.7683 34.0853L36.8246 33.5802L36.8293 33.075C36.8246 32.7317 36.8058 32.3688 36.7965 32.0157L36.7026 29.8872L36.515 25.6253C36.3884 22.7857 36.2711 19.946 36.2289 17.1064C36.1632 14.2668 36.1679 11.4272 36.1304 8.58754C36.1117 7.41049 35.7223 6.24325 35 5.33104C34.273 4.41883 33.2552 3.78617 32.1482 3.54095L31.7308 3.46738L31.2993 3.43305C30.9897 3.41834 30.6285 3.42324 30.2955 3.41834L28.2599 3.39382L24.1886 3.34477C21.4728 3.31044 18.7571 3.27611 16.0413 3.20745C13.3255 3.1486 10.6098 3.0407 7.89402 2.95733C6.65575 2.9279 5.39871 3.34968 4.39496 4.16871C3.39121 4.98283 2.67357 6.1844 2.4156 7.49877L2.33586 7.99411L2.30303 8.49926C2.28895 8.84257 2.29833 9.20549 2.29364 9.5586L2.28426 11.6871C2.27488 13.1094 2.29833 14.5267 2.30303 15.949L2.38276 20.2109L2.51879 24.4728L2.77676 32.9917C2.8049 34.2276 3.25987 35.4144 3.99627 36.361C4.75143 37.2977 5.80678 37.9402 6.94655 38.2001L7.37807 38.2737L7.81428 38.3031C8.12854 38.3178 8.48501 38.3129 8.82273 38.3227L10.8584 38.3816C12.2139 38.411 13.5741 38.4845 14.9297 38.5434C17.6454 38.6562 20.3612 38.8082 23.0769 38.9063C24.4372 38.9701 25.7927 38.9848 27.1529 39.024L31.2289 39.0535Z" fill="url(#paint0_linear)"/>
<path d="M10.7788 11.3291C12.4345 12.7121 14.0058 14.1785 15.5537 15.6792C17.1015 17.1702 18.6024 18.715 20.094 20.2697C21.5668 21.8391 23.0349 23.4232 24.4467 25.0515C25.8679 26.6797 27.2563 28.3374 28.5649 30.0785C26.9092 28.6954 25.3332 27.229 23.7901 25.7332C22.2422 24.2423 20.7413 22.6974 19.2497 21.1427C17.7769 19.5733 16.3135 17.9892 14.897 16.356C13.4758 14.7278 12.0874 13.075 10.7788 11.3291Z" fill="url(#paint1_linear)"/>
<path d="M28.56 11.7263C27.2842 13.438 25.924 15.0613 24.5356 16.6552C23.1519 18.254 21.7213 19.8038 20.2767 21.3438C18.818 22.8641 17.3499 24.3796 15.8349 25.8362C14.3245 27.3026 12.7814 28.7347 11.1538 30.0834C12.4296 28.3717 13.7898 26.7484 15.1782 25.1545C16.5619 23.5557 17.9925 22.0059 19.4371 20.4708C20.8958 18.9505 22.3639 17.4399 23.8836 15.9784C25.394 14.512 26.9371 13.075 28.56 11.7263Z" fill="url(#paint2_linear)"/>
</g>
<defs>
<linearGradient id="paint0_linear" x1="1.05786" y1="20.7062" x2="38.0624" y2="20.7062" gradientUnits="userSpaceOnUse">
<stop stop-color="#AF0036"/>
<stop offset="1" stop-color="#D54E4E"/>
</linearGradient>
<linearGradient id="paint1_linear" x1="10.1853" y1="20.7062" x2="29.1547" y2="20.7062" gradientUnits="userSpaceOnUse">
<stop stop-color="#BAF772"/>
<stop offset="1" stop-color="#047524"/>
</linearGradient>
<linearGradient id="paint2_linear" x1="10.5635" y1="20.904" x2="29.1544" y2="20.904" gradientUnits="userSpaceOnUse">
<stop stop-color="#BAF772"/>
<stop offset="1" stop-color="#047524"/>
</linearGradient>
<clipPath id="clip0">
<rect width="40" height="40" fill="white"/>
</clipPath>
</defs>
</svg>
