<svg width="80" height="80" viewBox="0 0 80 80" fill="none" xmlns="http://www.w3.org/2000/svg">
<path d="M38.122 21.8778C31.842 22.4915 25.562 22.7661 19.2819 22.968L14.5753 23.0892L9.86861 23.1457C8.28186 23.1699 6.76877 23.1699 5.12177 23.1457C4.00368 23.1053 2.91238 22.4673 2.21608 21.4417C1.86124 20.9329 1.59344 20.3353 1.43945 19.6973C1.3658 19.3742 1.31224 19.0512 1.29216 18.7201L1.27207 18.2436L1.27877 17.8883L1.44615 12.2109L1.55327 9.36819L1.60683 7.94683L1.61352 7.59149L1.647 7.14732C1.68047 6.84851 1.74073 6.55777 1.81438 6.27512C2.14244 5.14449 2.86551 4.23191 3.74927 3.76351C4.19114 3.52931 4.6665 3.40817 5.14185 3.41624L6.33358 3.4647L11.0403 3.60199C17.3203 3.72313 23.6003 3.52123 29.8803 3.23857C33.0203 3.10128 36.1604 2.92361 39.3004 2.8267C42.4404 2.71364 45.5804 2.65711 48.7204 2.60058C55.0004 2.48751 61.2805 2.35022 67.5605 2.39868L72.2672 2.46329L74.6707 2.50367C75.8356 2.55212 76.947 3.24665 77.6701 4.29652C78.0316 4.82145 78.3128 5.43522 78.4668 6.09745C78.5405 6.42856 78.594 6.76775 78.6141 7.10694C78.6208 7.26845 78.6275 7.47035 78.6275 7.59957L78.6208 7.95491L78.5673 10.7976L78.4267 16.475L78.3932 17.8964L78.3865 18.2517L78.3597 18.7201C78.3262 19.0351 78.266 19.35 78.1789 19.6569C77.8308 20.8683 77.0609 21.8536 76.1168 22.3462C75.6482 22.5965 75.1327 22.7257 74.6238 22.7177C74.1886 22.7096 73.8271 22.6854 73.4254 22.6692L71.0687 22.54C69.5021 22.4592 67.9287 22.3462 66.3621 22.2331C64.7954 22.1281 63.222 22.0151 61.6554 21.8697C61.5817 21.8616 61.5282 21.7889 61.5349 21.692C61.5416 21.6113 61.5951 21.5467 61.6554 21.5467C63.222 21.4013 64.7954 21.2963 66.3621 21.1833C67.9287 21.0783 69.5021 20.9571 71.0687 20.8764L73.4254 20.7472L74.5837 20.6825C74.8582 20.6583 75.126 20.5614 75.3603 20.3999C75.8356 20.093 76.1905 19.5358 76.3177 18.9381C76.3445 18.7847 76.3646 18.6313 76.3713 18.4778V18.2436L76.3646 17.8883L76.3244 16.4831L76.1838 10.8057L76.1302 7.96298L76.1235 7.60764L76.1101 7.38959C76.0968 7.26038 76.07 7.13116 76.0365 7.01003C75.9696 6.76775 75.849 6.54162 75.7017 6.3478C75.4072 5.96016 74.9921 5.75826 74.577 5.75018L72.2672 5.78249L67.5605 5.84709C61.2805 5.88747 55.0004 5.75826 48.7204 5.6452C45.5804 5.59674 42.4404 5.53213 39.3004 5.41907C36.1604 5.32216 33.0203 5.14449 29.8803 5.0072C23.607 4.72454 17.327 4.52264 11.047 4.64378L6.34028 4.78915L5.17533 4.84568C4.86735 4.86991 4.56607 4.98297 4.29827 5.15257C3.75596 5.49983 3.36095 6.12168 3.22705 6.80813C3.19357 6.97772 3.17349 7.14732 3.16679 7.32499V7.59149L3.18018 7.94683L3.23374 9.36819L3.34086 12.2109L3.50824 17.8883L3.51494 18.2436L3.52833 18.4778C3.54172 18.6232 3.57519 18.7524 3.60867 18.8897C3.68232 19.1562 3.80952 19.3985 3.97021 19.6084C4.29157 20.0203 4.73345 20.2707 5.18872 20.2787L7.50523 20.2707L9.86191 20.2949L14.5686 20.3514L19.2753 20.4726C25.5553 20.6745 31.8353 20.9491 38.1153 21.5628C38.189 21.5709 38.2425 21.6517 38.2358 21.7405C38.2358 21.8132 38.1823 21.8778 38.122 21.8778Z" fill="url(#paint0_linear)"/>
<path d="M44.2146 21.595C44.6899 21.1347 45.1653 20.9166 45.6406 20.7712C46.116 20.6501 46.5913 20.5532 47.0667 20.7066C47.542 20.8601 48.0174 21.2558 48.4928 21.3285C48.9681 21.4173 49.4435 21.28 49.9188 21.0539C50.3942 20.8197 50.8695 20.634 51.3449 20.5693C51.8202 20.4805 52.2956 20.3836 52.7709 20.424C53.2463 20.4644 53.7217 20.5774 54.197 20.7632C54.6724 20.957 55.1477 21.1831 55.6231 21.595V21.8373C55.1477 22.2491 54.6724 22.4753 54.197 22.6691C53.7217 22.8548 53.2463 22.9679 52.7709 23.0083C52.2956 23.0486 51.8202 22.9517 51.3449 22.8629C50.8695 22.7983 50.3942 22.6126 49.9188 22.3783C49.4435 22.1522 48.9681 22.023 48.4928 22.1038C48.0174 22.1765 47.542 22.5641 47.0667 22.7256C46.5913 22.8791 46.116 22.7821 45.6406 22.661C45.1653 22.5156 44.6899 22.2976 44.2146 21.8373V21.595Z" fill="url(#paint1_linear)"/>
<path d="M75.1192 24.6075C75.6281 32.3927 75.8557 40.186 76.0231 47.9712L76.1235 53.81L76.1704 59.6489C76.2105 63.5415 76.1771 67.4341 76.0967 71.3348L76.0633 72.7965L76.0432 73.5234C76.0298 73.8383 76.003 74.1694 75.9427 74.4925C75.7084 75.7685 75.0456 76.8991 74.1485 77.5694C73.6999 77.9086 73.1977 78.1347 72.6822 78.2397C72.4211 78.2881 72.1667 78.3043 71.9056 78.3043L71.303 78.272L68.8794 78.1428C65.6523 77.9651 62.4253 77.8359 59.1916 77.7713C52.7375 77.6502 46.2767 77.852 39.8226 78.1347C36.5955 78.272 33.3685 78.4497 30.1347 78.5466C26.9077 78.6596 23.6806 78.7162 20.4469 78.7727L10.7591 78.9342L8.33542 78.9665H7.73286C7.43827 78.9584 7.14368 78.9261 6.8491 78.8615C6.26662 78.7242 5.71093 78.4416 5.22219 78.0459C4.2447 77.2544 3.53502 75.9865 3.30738 74.5813C3.25382 74.234 3.22704 73.8625 3.22034 73.5234V72.7965L3.22704 71.3348C3.29399 63.5496 3.38772 55.7563 3.60197 47.9712C3.80282 40.186 4.09071 32.3927 4.52589 24.6075C4.53259 24.5187 4.59284 24.4541 4.66649 24.4541C4.73344 24.4622 4.787 24.5268 4.7937 24.6075C5.22888 32.3927 5.51677 40.186 5.71762 47.9712C5.93187 55.7563 6.0256 63.5496 6.09255 71.3348L6.09925 72.7965V73.5234C6.10594 73.6687 6.11264 73.7899 6.13272 73.9191C6.21306 74.4198 6.46748 74.8963 6.82901 75.1951C7.00978 75.3404 7.21064 75.4454 7.41818 75.4939C7.52531 75.5181 7.63243 75.5262 7.73955 75.5343H8.34211L10.7657 75.5666L20.4536 75.7281C23.6806 75.7765 26.9077 75.8411 30.1414 75.9542C33.3685 76.0511 36.5955 76.2288 39.8293 76.3661C46.2834 76.6487 52.7441 76.8506 59.1982 76.7295C62.4253 76.6649 65.6523 76.5357 68.8861 76.358L71.3097 76.2288L71.9123 76.1965C72.0596 76.1803 72.2002 76.1561 72.3408 76.1157C72.6153 76.0269 72.8764 75.8734 73.0973 75.6716C73.5459 75.2597 73.8472 74.6459 73.9141 74.0079C73.9342 73.8464 73.9342 73.693 73.9342 73.5234L73.9141 72.7965L73.8806 71.3348C73.8003 67.4422 73.7735 63.5496 73.807 59.6489L73.8539 53.81L73.9543 47.9712C74.1217 40.186 74.3493 32.3927 74.8581 24.6075C74.8648 24.5187 74.9318 24.4541 75.0054 24.4622C75.0657 24.4622 75.1125 24.5268 75.1192 24.6075Z" fill="url(#paint2_linear)"/>
<path d="M59.0309 60.9894C56.8349 63.921 54.11 66.368 50.97 67.8055C47.85 69.2995 44.4154 69.7922 41.0679 69.2672C40.2243 69.1219 39.4008 68.92 38.5572 68.5081C37.7404 68.0639 36.9905 67.4825 36.4148 66.6426C35.839 65.8269 35.4373 64.8497 35.2498 63.8402C35.0623 62.8307 34.9887 61.8132 35.0222 60.8118C35.0623 58.8009 35.3837 56.8384 35.7252 54.9002C36.1001 52.97 36.4215 51.0238 36.9638 49.1178C37.486 47.2119 38.1488 45.3383 39.0727 43.6181C39.9967 41.906 41.1817 40.307 42.735 39.2329C44.2681 38.1346 46.1963 37.7227 47.9705 38.175C49.7514 38.6192 51.2913 39.7498 52.6237 41.05C53.9292 42.3745 55.0674 43.9816 56.0449 45.4998C57.0424 46.9696 58.2074 48.3991 59.2184 50.0143C59.7205 50.8299 60.2092 51.6698 60.5507 52.6309C60.7515 53.0912 60.852 53.6 60.9792 54.0926C61.0327 54.6095 61.1466 55.1182 61.0997 55.6351C61.1064 56.6769 60.7984 57.646 60.457 58.5586C60.2293 58.9785 60.0419 59.4227 59.8075 59.8346L59.0309 60.9894ZM58.9238 60.8764L59.6602 59.7054C59.8812 59.2935 60.0686 58.8655 60.2628 58.4374C60.5373 57.5329 60.8051 56.5961 60.7047 55.6432C60.7181 55.1667 60.5708 54.7144 60.4837 54.2622C60.323 53.8261 60.1891 53.39 59.9682 52.9943C59.5799 52.1786 59.0443 51.4599 58.4953 50.7653C57.3839 49.3763 56.1185 48.1326 54.987 46.6062L54.1702 45.4918C53.9158 45.1203 53.648 44.773 53.3735 44.4338C52.8312 43.7393 52.2487 43.1094 51.6462 42.5037C51.0302 41.9384 50.4143 41.373 49.7381 40.945C49.0685 40.517 48.3723 40.1778 47.6626 39.9678C46.2298 39.556 44.7234 39.8144 43.4112 40.6785C42.0855 41.5265 40.9808 42.8994 40.0502 44.4177C39.1263 45.9521 38.343 47.6561 37.727 49.457C37.1111 51.2499 36.629 53.1396 36.2206 55.0375C35.8256 56.9353 35.5109 58.8816 35.5109 60.8198C35.5109 61.7889 35.6247 62.75 35.8457 63.6464C36.08 64.5428 36.4951 65.3423 37.024 65.9803C37.5395 66.6264 38.2425 67.0706 38.9321 67.3613C39.6284 67.6278 40.4318 67.7409 41.2152 67.8136C44.3753 68.0882 47.5956 67.7328 50.6955 66.7556C52.2487 66.2792 53.7551 65.5442 55.1678 64.5751C56.5939 63.6464 57.799 62.2896 58.9238 60.8764Z" fill="url(#paint3_linear)"/>
<path d="M48.0844 42.35C47.9438 42.7134 47.8098 42.8992 47.6693 43.0365C47.5287 43.1657 47.3948 43.2222 47.2542 43.2303C47.1136 43.2303 46.9797 43.1737 46.8391 43.0445C46.6985 42.9072 46.5646 42.7215 46.424 42.35C46.5646 41.9785 46.6985 41.8008 46.8391 41.6555C46.9797 41.5263 47.1136 41.4697 47.2542 41.4697C47.3948 41.4697 47.5287 41.5343 47.6693 41.6636C47.8098 41.8008 47.9504 41.9866 48.0844 42.35Z" fill="url(#paint4_linear)"/>
<path d="M45.3126 42.3499C44.7167 43.1817 44.1008 43.7713 43.4848 44.377C43.1701 44.6758 42.8622 44.9665 42.5408 45.2492C42.2194 45.5399 41.9048 45.8387 41.5031 46.1375C41.5499 45.5884 41.7307 45.0715 41.9784 44.6273C42.2261 44.1832 42.5274 43.7794 42.8756 43.4563C43.217 43.1252 43.6053 42.8587 44.007 42.6649C44.4154 42.4711 44.8506 42.3338 45.3126 42.3499Z" fill="url(#paint5_linear)"/>
<path d="M45.3126 46.1458C45.3929 46.5415 45.3795 46.7919 45.3393 47.0018C45.2992 47.2118 45.2188 47.3652 45.105 47.4702C44.9979 47.5833 44.8506 47.6398 44.6765 47.6479C44.4958 47.6479 44.2882 47.6156 43.9802 47.4379C43.8999 47.0422 43.9133 46.7919 43.9468 46.5738C43.9869 46.3638 44.0673 46.2104 44.1811 46.1054C44.2949 46.0004 44.4355 45.9358 44.6096 45.9277C44.8104 45.9358 45.0113 45.9762 45.3126 46.1458Z" fill="url(#paint6_linear)"/>
<path d="M49.7046 46.8001C49.8385 47.1474 49.8719 47.3735 49.8786 47.5593C49.8786 47.7369 49.8385 47.8661 49.7648 47.955C49.6912 48.0438 49.5841 48.0842 49.4301 48.0842C49.2761 48.068 49.0953 48.0277 48.8074 47.85C48.6668 47.4947 48.64 47.2766 48.6334 47.0909C48.6334 46.9132 48.6735 46.7759 48.7472 46.6951C48.8208 46.6063 48.9346 46.5659 49.0819 46.5659C49.2359 46.574 49.4167 46.6225 49.7046 46.8001Z" fill="url(#paint7_linear)"/>
<path d="M40.7599 52.3397C40.9273 52.6789 40.9674 52.9131 40.9875 53.115C40.9942 53.3169 40.9607 53.4704 40.8871 53.5915C40.8135 53.7126 40.6996 53.7934 40.5323 53.8418C40.3649 53.8742 40.164 53.8903 39.8494 53.7853C39.682 53.4381 39.6351 53.2119 39.6217 53.002C39.615 52.8001 39.6485 52.6466 39.7288 52.5255C39.8025 52.4043 39.923 52.3236 40.0837 52.2832C40.2444 52.2509 40.4452 52.2428 40.7599 52.3397Z" fill="url(#paint8_linear)"/>
<path d="M39.8494 60.634C39.9565 61.0055 39.9632 61.2397 39.9498 61.4336C39.9297 61.6274 39.8694 61.7647 39.7824 61.8535C39.6954 61.9423 39.5682 61.9908 39.4142 61.9827C39.2468 61.9666 39.0593 61.9181 38.7714 61.7324C38.6643 61.3609 38.6576 61.1267 38.671 60.9328C38.6911 60.739 38.7514 60.6017 38.8384 60.5129C38.9254 60.4241 39.0526 60.3756 39.2066 60.3837C39.374 60.3918 39.5615 60.4402 39.8494 60.634Z" fill="url(#paint9_linear)"/>
<path d="M44.0338 57.1857C44.1275 57.5733 44.1275 57.8156 44.1008 58.0336C44.0673 58.2355 43.9936 58.389 43.8932 58.5021C43.7928 58.6151 43.6522 58.6716 43.4781 58.6878C43.2973 58.6878 43.0965 58.6636 42.7885 58.4859C42.6948 58.0983 42.6948 57.8479 42.7216 57.6379C42.755 57.436 42.8287 57.2745 42.9291 57.1695C43.0362 57.0645 43.1701 56.9999 43.3442 56.9919C43.525 56.9838 43.7325 57.0161 44.0338 57.1857Z" fill="url(#paint10_linear)"/>
<path d="M47.6358 52.3403C47.7496 52.7199 47.7563 52.9702 47.7362 53.1883C47.7094 53.3983 47.6492 53.5598 47.5487 53.6809C47.4483 53.8021 47.3144 53.8828 47.1403 53.907C46.9596 53.9313 46.752 53.9151 46.4374 53.7778C46.3235 53.3983 46.3168 53.1479 46.3302 52.9299C46.357 52.7199 46.4173 52.5584 46.5177 52.4372C46.6181 52.3161 46.752 52.2434 46.9261 52.2111C47.1136 52.195 47.3211 52.203 47.6358 52.3403Z" fill="url(#paint11_linear)"/>
<path d="M53.4271 49.1419C53.5543 49.5134 53.5677 49.7476 53.561 49.9576C53.5476 50.1595 53.494 50.3048 53.4003 50.4179C53.3132 50.531 53.186 50.5956 53.0187 50.6117C52.8446 50.6198 52.6504 50.5956 52.3425 50.4502C52.2152 50.0787 52.1952 49.8445 52.2086 49.6345C52.2219 49.4326 52.2755 49.2873 52.3692 49.1742C52.4563 49.0692 52.5835 49.0046 52.7509 48.9804C52.9316 48.9723 53.1258 48.9965 53.4271 49.1419Z" fill="url(#paint12_linear)"/>
<path d="M48.8007 57.8319C48.9079 58.2114 48.9145 58.4537 48.8945 58.6637C48.8677 58.8656 48.8074 59.019 48.707 59.1321C48.6133 59.2451 48.4794 59.3017 48.312 59.3178C48.1379 59.3259 47.9371 59.2936 47.6291 59.1321C47.522 58.7525 47.5153 58.5102 47.5354 58.3003C47.5621 58.0984 47.6224 57.9449 47.7228 57.8399C47.8232 57.7349 47.9504 57.6703 48.1245 57.6542C48.2986 57.6461 48.4994 57.6703 48.8007 57.8319Z" fill="url(#paint13_linear)"/>
<path d="M43.9936 62.5318C44.0405 62.9437 44.0003 63.2102 43.9401 63.4363C43.8731 63.6544 43.7727 63.824 43.6388 63.937C43.5116 64.0582 43.3509 64.1228 43.15 64.1389C42.9492 64.147 42.7283 64.1147 42.4136 63.929C42.36 63.5171 42.4069 63.2506 42.4671 63.0245C42.5341 62.8064 42.6345 62.6368 42.7684 62.5238C42.9023 62.4107 43.063 62.338 43.2572 62.3299C43.458 62.3219 43.679 62.3461 43.9936 62.5318Z" fill="url(#paint14_linear)"/>
<path d="M49.256 62.1279C49.3698 62.4913 49.3832 62.7255 49.3765 62.9193C49.3631 63.1051 49.3096 63.2424 49.2225 63.3393C49.1355 63.4281 49.015 63.4766 48.861 63.4766C48.7003 63.4604 48.5128 63.42 48.2249 63.2343C48.1111 62.8628 48.0977 62.6367 48.1044 62.4428C48.1178 62.2571 48.1714 62.1198 48.2584 62.031C48.3455 61.9421 48.466 61.8937 48.62 61.9018C48.7806 61.9018 48.9681 61.9421 49.256 62.1279Z" fill="url(#paint15_linear)"/>
<path d="M52.3558 55.0375C52.4697 55.4332 52.4697 55.6997 52.4429 55.9339C52.4094 56.1601 52.3358 56.3458 52.2286 56.4912C52.1215 56.6365 51.9742 56.7334 51.7868 56.79C51.5926 56.8384 51.3717 56.8546 51.0369 56.7415C50.9231 56.3458 50.9231 56.0793 50.9499 55.8451C50.9833 55.619 51.057 55.4332 51.1708 55.2959C51.2846 55.1586 51.4252 55.0537 51.6194 55.0052C51.8001 54.9406 52.0211 54.9244 52.3558 55.0375Z" fill="url(#paint16_linear)"/>
<path d="M54.8397 59.1322C54.9268 59.536 54.9067 59.7944 54.8665 60.0205C54.8196 60.2386 54.7326 60.4082 54.6188 60.5374C54.505 60.6666 54.351 60.7393 54.1635 60.7716C53.9694 60.7958 53.7484 60.7797 53.4338 60.6262C53.3467 60.2224 53.3668 59.964 53.407 59.7298C53.4538 59.5118 53.5409 59.3422 53.6547 59.2129C53.7752 59.0918 53.9225 59.011 54.11 58.9787C54.3041 58.9707 54.5184 58.9868 54.8397 59.1322Z" fill="url(#paint17_linear)"/>
<path d="M57.0759 55.8855C57.183 56.2489 57.2031 56.4589 57.1964 56.6446C57.183 56.8142 57.1429 56.9353 57.0625 57.008C56.9889 57.0807 56.8818 57.1049 56.7412 57.0726C56.5939 57.0322 56.4265 56.9596 56.1654 56.7334C56.0516 56.37 56.0382 56.152 56.0449 55.9743C56.0583 55.8047 56.0984 55.6836 56.1788 55.6109C56.2524 55.5382 56.3595 55.514 56.5001 55.5463C56.6407 55.5947 56.8081 55.6674 57.0759 55.8855Z" fill="url(#paint18_linear)"/>
<path d="M56.0248 40.9048C55.7168 40.3637 55.4356 39.8226 55.074 39.3623C54.746 38.8778 54.351 38.482 53.956 38.1267C53.5476 37.7794 53.1124 37.4887 52.6504 37.2868C52.2085 37.0687 51.693 36.9234 51.2645 36.8911L51.7399 36.4792C51.6127 37.0284 51.606 37.731 51.7265 38.3205C51.8403 38.9262 52.1282 39.4592 52.5299 39.8872C53.3467 40.7594 54.5384 41.1632 55.7235 41.4782C55.1142 41.567 54.4916 41.5509 53.8689 41.4378C53.253 41.3086 52.6169 41.0744 52.0679 40.5979C51.5056 40.1537 51.057 39.4269 50.8494 38.6193C50.6419 37.7956 50.6352 36.988 50.8093 36.1319C50.8628 35.8654 51.0637 35.6958 51.2846 35.7201H51.2913C51.934 35.7766 52.4697 35.9785 53.0053 36.2612C53.5275 36.568 54.0296 36.9315 54.438 37.416C54.8464 37.8925 55.2146 38.4336 55.4691 39.0393C55.7436 39.6288 55.9243 40.2668 56.0248 40.9048Z" fill="url(#paint19_linear)"/>
<path d="M60.1557 42.2938C60.4302 42.0757 60.7448 41.89 61.0863 41.8092C61.4277 41.7042 61.796 41.7284 62.1508 41.8092C62.5057 41.9142 62.8605 42.0838 63.1551 42.3422C63.4564 42.6087 63.7175 42.8752 63.9518 43.2952C64.0121 43.4002 64.0321 43.5294 64.0188 43.6505L64.0121 43.699C63.9652 44.0543 63.8179 44.4581 63.5501 44.7408C63.2823 45.0315 62.9609 45.1446 62.6797 45.193C62.1106 45.2738 61.6219 45.1203 61.1599 44.9588C60.2494 44.5792 59.4326 44.022 58.7363 43.2709C59.6468 43.5132 60.5105 43.8282 61.3608 43.9897C61.7759 44.0785 62.2044 44.1189 62.5391 44.0462C62.8873 43.9574 62.9944 43.8443 63.0747 43.489L63.135 43.8928C63.0145 43.6667 62.827 43.3679 62.6195 43.1498C62.4119 42.9318 62.1843 42.7218 61.9299 42.5926C61.6755 42.4472 61.3943 42.3422 61.093 42.3018C60.8051 42.2453 60.4904 42.2695 60.1557 42.2938Z" fill="url(#paint20_linear)"/>
<path d="M55.2816 38.6758C55.1812 38.1832 55.1477 37.7067 55.1209 37.2383C55.1075 36.7618 55.1209 36.2934 55.141 35.825C55.1544 35.5343 55.362 35.3162 55.6097 35.3324C55.6498 35.3324 55.6967 35.3485 55.7302 35.3647L55.7771 35.3889C56.1252 35.5424 56.4332 35.72 56.7412 35.9462C57.0424 36.1642 57.3303 36.4146 57.5914 36.7134C57.8525 37.0122 58.0936 37.3352 58.2743 37.7229C58.4551 38.1024 58.5823 38.5305 58.589 38.9585C58.1137 38.3286 57.6182 37.9167 57.0759 37.521C56.8148 37.3191 56.5336 37.1414 56.2591 36.9556C55.9846 36.778 55.6967 36.5842 55.4356 36.4307L56.0716 35.9865C55.9913 36.4469 55.8909 36.8991 55.7704 37.3514C55.6298 37.7955 55.4892 38.2397 55.2816 38.6758Z" fill="url(#paint21_linear)"/>
<path d="M58.5823 38.9507C58.8568 38.0704 59.2786 37.2547 59.8678 36.5602C60.1691 36.2291 60.5239 35.9141 60.9658 35.7365C61.4077 35.5588 61.9567 35.583 62.3985 35.8576C62.5592 35.9545 62.6463 36.1483 62.6529 36.3422C62.6596 36.9721 62.6195 37.5293 62.5123 38.1108C62.4186 38.6842 62.2512 39.2333 62.0504 39.7664C61.8428 40.2913 61.5817 40.792 61.2604 41.22C60.9524 41.6642 60.5641 42.0276 60.1624 42.3022C60.3967 41.8015 60.631 41.3492 60.8118 40.8566C60.9926 40.3721 61.1532 39.8875 61.2738 39.3868C61.401 38.8942 61.5014 38.3854 61.5817 37.8766C61.6487 37.3759 61.7156 36.8348 61.7223 36.3664L61.9767 36.851C61.7357 36.6975 61.4813 36.6248 61.1867 36.7056C60.8921 36.7783 60.5775 36.9479 60.2829 37.1821C59.6803 37.6424 59.1313 38.2804 58.5823 38.9507Z" fill="url(#paint22_linear)"/>
<path d="M60.2427 44.644C61.0997 45.0882 61.7692 46.0492 62.0972 47.1556C62.2512 47.7129 62.3249 48.3024 62.3383 48.892C62.3517 49.1827 62.3182 49.4734 62.3048 49.7722L62.191 50.6364C62.1642 50.8383 62.0169 50.9756 61.8495 50.9513H61.8294C61.1867 50.8786 60.5975 50.6929 60.0084 50.4425C59.4259 50.1841 58.8635 49.8288 58.3547 49.3765C57.8458 48.9243 57.4174 48.3347 57.096 47.6806C56.7545 47.0264 56.6072 46.2673 56.5068 45.5405V45.5324C56.5068 45.5162 56.5068 45.492 56.5068 45.4759C56.5336 45.0882 56.5202 44.636 56.4399 44.2241C56.3595 43.8041 56.2189 43.4003 56.0315 43.0127C56.2926 43.3277 56.5068 43.7153 56.6474 44.1433C56.7947 44.5713 56.8951 45.0155 56.9018 45.5162V45.4516C57.0759 46.1058 57.25 46.7599 57.5914 47.2929C57.9128 47.834 58.2944 48.3267 58.7631 48.6981C59.2183 49.0858 59.7272 49.3846 60.2561 49.6269C60.7783 49.8692 61.3541 50.0387 61.8897 50.1357L61.5282 50.4506L61.6688 49.6753C61.6888 49.4169 61.729 49.1504 61.7357 48.892C61.7692 48.367 61.729 47.8421 61.6487 47.3333C61.4411 46.3077 60.9859 45.3143 60.2427 44.644Z" fill="url(#paint23_linear)"/>
<path d="M31.3332 51.8399C32.5115 53.7216 33.3953 55.9263 33.7367 58.3168C34.1116 60.6911 33.9576 63.1785 33.3283 65.4882C33.1609 66.0696 32.9668 66.6269 32.6789 67.176C32.3709 67.701 32.0027 68.1694 31.5273 68.4763C30.59 69.1385 29.4853 69.0577 28.5346 68.7993C27.5638 68.5409 26.6399 68.1048 25.736 67.6364C24.8389 67.1518 23.9417 66.6834 23.0714 66.0939C22.2077 65.5043 21.3708 64.8259 20.6344 63.978C19.918 63.1138 19.2686 62.1124 18.9204 60.893C18.5589 59.6897 18.5723 58.2764 18.9941 57.065C19.4225 55.8617 20.1523 54.9168 20.9222 54.1011C21.344 53.7539 21.7391 53.3581 22.1742 53.0593C22.6027 52.7686 23.0647 52.4375 23.4731 52.1871C24.3033 51.6461 25.1268 50.9838 26.0239 50.4508C26.4792 50.1924 26.9412 49.942 27.4433 49.8047C27.9387 49.6513 28.4676 49.6109 28.9698 49.7563C29.9807 50.0389 30.744 50.9111 31.3332 51.8399ZM31.2662 51.9045L30.7775 51.2503C30.6034 51.0484 30.4159 50.8627 30.2285 50.6769C29.8201 50.3781 29.3916 50.0793 28.9162 50.0551C28.4543 49.9824 27.9856 50.0712 27.5504 50.2731C27.1085 50.4508 26.7001 50.7496 26.2984 51.0565C25.495 51.6864 24.7519 52.4375 23.8815 53.0674L22.6429 53.9719C22.2345 54.2626 21.8863 54.6422 21.5047 54.9652C20.8151 55.7082 20.1925 56.532 19.8242 57.5011C19.4627 58.4702 19.4225 59.5685 19.697 60.5861C19.9715 61.6117 20.5005 62.5566 21.1298 63.3965C21.7859 64.2122 22.5157 64.9632 23.3191 65.6012C24.1292 66.2231 24.9728 66.8126 25.8632 67.2972C26.7403 67.7898 27.6441 68.2501 28.5949 68.4601C29.0635 68.5732 29.5456 68.5974 30.0075 68.5409C30.4695 68.4763 30.9047 68.2744 31.2729 67.9675C31.6478 67.6767 31.9424 67.2326 32.1634 66.7722C32.3709 66.3119 32.5182 65.7547 32.6387 65.2055C33.1341 63.0008 33.3216 60.683 33.1944 58.3814C33.0739 56.0959 32.4646 53.77 31.2662 51.9045Z" fill="url(#paint24_linear)"/>
<path d="M21.0361 57.4766C21.3441 57.7511 21.3842 57.9611 21.3708 58.163C21.3507 58.2599 21.3106 58.3488 21.2302 58.4376C21.1499 58.5184 21.0428 58.5991 20.8486 58.6556C20.6879 58.5184 20.6076 58.3972 20.5607 58.2842C20.5072 58.1711 20.5072 58.0661 20.5139 57.9692C20.5607 57.7673 20.6678 57.5896 21.0361 57.4766Z" fill="url(#paint25_linear)"/>
<path d="M20.7214 59.4312C21.0562 59.948 21.2771 60.4487 21.498 60.9575C21.7123 61.4744 21.9265 61.9508 22.1341 62.5565C21.6052 62.3546 21.2302 61.8297 20.9825 61.2805C20.7549 60.7152 20.6143 60.0853 20.7214 59.4312Z" fill="url(#paint26_linear)"/>
<path d="M22.5626 59.8665C22.9442 59.8504 23.0915 59.9877 23.1852 60.1573C23.2187 60.2542 23.2455 60.3511 23.2187 60.4803C23.2053 60.6095 23.1584 60.7549 23.0379 60.9487C22.8371 60.9649 22.7165 60.9245 22.6161 60.8679C22.5157 60.8195 22.4554 60.7387 22.4086 60.6499C22.355 60.4641 22.3416 60.238 22.5626 59.8665Z" fill="url(#paint27_linear)"/>
<path d="M23.3794 56.8303C23.7342 56.7334 23.8681 56.8061 23.9485 56.9192C23.9752 56.9838 23.9953 57.0645 23.9685 57.1695C23.9485 57.2745 23.9016 57.4037 23.7878 57.5814C23.6003 57.6379 23.4865 57.6379 23.3994 57.6137C23.3057 57.5975 23.2589 57.5491 23.2187 57.4845C23.1651 57.3633 23.1584 57.1857 23.3794 56.8303Z" fill="url(#paint28_linear)"/>
<path d="M25.0598 63.7916C25.4147 63.6462 25.5754 63.7189 25.6825 63.8481C25.7293 63.9208 25.7628 64.0016 25.7628 64.1308C25.7628 64.2519 25.7427 64.3892 25.6557 64.6073C25.4682 64.688 25.3477 64.6961 25.254 64.6799C25.1536 64.6719 25.0866 64.6153 25.033 64.5507C24.946 64.3973 24.9058 64.1954 25.0598 63.7916Z" fill="url(#paint29_linear)"/>
<path d="M28.9899 65.3745C29.3581 65.318 29.492 65.423 29.579 65.5603C29.6058 65.641 29.6259 65.7218 29.5991 65.8348C29.579 65.9479 29.5322 66.0771 29.405 66.2548C29.2108 66.2871 29.097 66.2709 29.0033 66.2306C28.9095 66.1983 28.856 66.1336 28.8158 66.069C28.7622 65.9156 28.7555 65.7218 28.9899 65.3745Z" fill="url(#paint30_linear)"/>
<path d="M27.7848 62.0228C28.1664 61.9905 28.3137 62.1117 28.4074 62.2732C28.4409 62.362 28.4677 62.4589 28.4476 62.5881C28.4342 62.7093 28.394 62.8546 28.2735 63.0485C28.0726 63.0727 27.9521 63.0404 27.8584 63C27.758 62.9596 27.6977 62.8789 27.6509 62.7981C27.5839 62.6204 27.5705 62.4024 27.7848 62.0228Z" fill="url(#paint31_linear)"/>
<path d="M25.8432 58.9221C26.2248 58.8575 26.3788 58.9786 26.4859 59.132C26.5261 59.2209 26.5595 59.3178 26.5462 59.447C26.5395 59.5762 26.506 59.7216 26.4056 59.9316C26.2047 59.9719 26.0842 59.9477 25.9838 59.9073C25.8766 59.8669 25.8164 59.7943 25.7628 59.7216C25.6825 59.5439 25.649 59.3259 25.8432 58.9221Z" fill="url(#paint32_linear)"/>
<path d="M24.9393 54.4638C25.3076 54.3831 25.4548 54.48 25.5553 54.6254C25.5887 54.7061 25.6155 54.795 25.6021 54.9161C25.5887 55.0372 25.5553 55.1745 25.4481 55.3764C25.254 55.4249 25.1335 55.4087 25.0397 55.3764C24.9393 55.3441 24.8791 55.2876 24.8322 55.2149C24.7652 55.0453 24.7452 54.8434 24.9393 54.4638Z" fill="url(#paint33_linear)"/>
<path d="M28.6417 58.7199C29.0167 58.6633 29.1639 58.7764 29.2644 58.9298C29.2979 59.0187 29.3246 59.1075 29.3045 59.2367C29.2912 59.3579 29.251 59.5032 29.1372 59.697C28.943 59.7294 28.8158 59.7132 28.7221 59.6728C28.6216 59.6324 28.5614 59.5678 28.5145 59.4871C28.4543 59.3094 28.4342 59.0994 28.6417 58.7199Z" fill="url(#paint34_linear)"/>
<path d="M30.3825 62.6528C30.7775 62.6851 30.9315 62.8547 31.0252 63.0647C31.0587 63.1778 31.0855 63.2908 31.0654 63.4281C31.052 63.5654 31.0051 63.7188 30.8846 63.9207C30.6771 63.9127 30.5498 63.8481 30.4494 63.7754C30.3423 63.7027 30.2887 63.6058 30.2352 63.5089C30.1682 63.2989 30.1548 63.0486 30.3825 62.6528Z" fill="url(#paint35_linear)"/>
<path d="M30.7842 58.8897C31.1524 58.8251 31.2863 58.922 31.3666 59.0512C31.3934 59.1239 31.4135 59.2127 31.3867 59.3258C31.3666 59.4389 31.3198 59.5681 31.1993 59.7457C31.0051 59.7861 30.8913 59.77 30.8042 59.7377C30.7105 59.7054 30.657 59.6488 30.6168 59.5842C30.5565 59.4308 30.5565 59.237 30.7842 58.8897Z" fill="url(#paint36_linear)"/>
<path d="M27.6843 55.8937C28.0726 55.8372 28.2534 55.9745 28.3739 56.1522C28.4208 56.2491 28.4677 56.3621 28.4677 56.4994C28.4744 56.6367 28.4543 56.7982 28.3605 57.0244C28.1597 57.0567 28.0258 57.0324 27.9187 56.984C27.8048 56.9355 27.7379 56.8548 27.6709 56.7659C27.5705 56.564 27.5169 56.3218 27.6843 55.8937Z" fill="url(#paint37_linear)"/>
<path d="M29.9607 54.593C30.349 54.5769 30.5164 54.7222 30.6235 54.908C30.6637 55.013 30.6971 55.118 30.6837 55.2552C30.677 55.3925 30.6436 55.546 30.5298 55.7559C30.3289 55.7721 30.195 55.7317 30.0946 55.6752C29.9874 55.6187 29.9272 55.5379 29.8669 55.441C29.7866 55.2391 29.7598 55.0049 29.9607 54.593Z" fill="url(#paint38_linear)"/>
<path d="M28.635 52.6469C28.9966 52.5823 29.1171 52.663 29.1773 52.7842C29.1974 52.8488 29.2041 52.9215 29.1706 53.0184C29.1372 53.1153 29.0836 53.2283 28.943 53.3899C28.7555 53.4302 28.6417 53.4141 28.5614 53.3899C28.4743 53.3656 28.4342 53.3172 28.4007 53.2526C28.3605 53.1234 28.3806 52.9538 28.635 52.6469Z" fill="url(#paint39_linear)"/>
<path d="M21.2302 51.694C20.9289 51.8556 20.6344 51.9929 20.3733 52.1867C20.0988 52.3643 19.8644 52.5985 19.6435 52.8408C19.4292 53.0912 19.2351 53.3658 19.0878 53.6646C18.9338 53.9553 18.7999 54.3026 18.7396 54.6014L18.5924 54.2137C18.8468 54.3672 19.1882 54.456 19.4828 54.4318C19.7908 54.4156 20.0787 54.2783 20.3398 54.0441C20.8553 53.5596 21.1834 52.7681 21.4713 51.9605C21.4445 52.4047 21.3708 52.8408 21.2436 53.2688C21.1097 53.6888 20.9223 54.1087 20.6344 54.4479C20.3532 54.7952 19.9515 55.0294 19.5364 55.0859C19.1146 55.1424 18.7196 55.0536 18.3246 54.8275C18.204 54.7629 18.1438 54.5933 18.1773 54.4399C18.2777 53.9876 18.4384 53.6403 18.6325 53.285C18.8401 52.9539 19.0744 52.6389 19.3556 52.4047C19.9113 51.9282 20.5808 51.686 21.2302 51.694Z" fill="url(#paint40_linear)"/>
<path d="M22.3751 48.9244C22.2144 48.4883 22.1876 47.9472 22.3684 47.4546C22.4554 47.2123 22.5826 46.9862 22.7433 46.8085C22.9107 46.6228 23.0647 46.4693 23.299 46.3563L23.3124 46.3482C23.3727 46.3159 23.4463 46.324 23.4999 46.3563C23.5869 46.4047 23.6673 46.4613 23.7476 46.5259C23.8212 46.5986 23.8882 46.7035 23.9551 46.8005C23.9953 46.9054 24.0355 47.0266 24.0556 47.1396C24.0623 47.2446 24.069 47.3577 24.069 47.4627C24.0489 47.8745 23.915 48.1976 23.7878 48.5045C23.5066 49.1102 23.1383 49.6189 22.6898 50.0308C22.9107 49.417 23.1584 48.8356 23.3325 48.2541C23.4195 47.9715 23.4932 47.6727 23.4999 47.4304C23.4932 47.1719 23.453 47.0831 23.2856 46.9862H23.4865C23.366 47.0508 23.1919 47.1477 23.0714 47.2689C22.9442 47.39 22.817 47.5273 22.7232 47.6969C22.509 48.0199 22.4153 48.4479 22.3751 48.9244Z" fill="url(#paint41_linear)"/>
<path d="M20.0586 51.9685C19.5631 51.9927 19.1012 51.8877 18.6593 51.7423C18.5187 51.6939 18.4384 51.5243 18.4718 51.3547C18.4785 51.3224 18.4919 51.2901 18.5053 51.2658L18.5187 51.2416C18.753 50.7974 19.0141 50.4179 19.369 50.111C19.7104 49.8122 20.1456 49.5699 20.5741 49.6587C20.2126 49.9252 19.9582 50.2321 19.7037 50.5632C19.456 50.8944 19.2016 51.2497 18.9874 51.605L18.8468 51.1043C19.2619 51.3224 19.6837 51.5808 20.0586 51.9685Z" fill="url(#paint42_linear)"/>
<path d="M20.5674 49.659C20.1657 49.3683 19.8243 48.9726 19.5498 48.4799C19.4225 48.2296 19.3087 47.9469 19.2753 47.6077C19.2351 47.2766 19.3154 46.889 19.4962 46.6063C19.5631 46.5094 19.6636 46.461 19.764 46.4852C20.072 46.5498 20.3398 46.6467 20.6076 46.784C20.8754 46.9132 21.1231 47.0909 21.3574 47.3008C21.8194 47.7127 22.2077 48.278 22.3751 48.9241C21.9533 48.4719 21.5449 48.0923 21.0829 47.8096C20.8553 47.6643 20.621 47.535 20.3866 47.422C20.1523 47.317 19.8979 47.2039 19.6703 47.1474L19.9381 47.0263C19.8376 47.1797 19.7707 47.3493 19.7774 47.5673C19.7774 47.7854 19.8243 48.0277 19.9046 48.2619C20.0586 48.7384 20.3063 49.1987 20.5674 49.659Z" fill="url(#paint43_linear)"/>
<path d="M23.5267 49.1344C23.8413 48.5772 24.3836 48.2138 24.9594 48.1088C25.2473 48.0603 25.5419 48.0765 25.8298 48.133C26.1177 48.1895 26.3922 48.3107 26.66 48.4318C26.7537 48.4803 26.8006 48.6014 26.7738 48.7145V48.7225C26.6667 49.1748 26.506 49.5624 26.3185 49.9582C26.1244 50.3458 25.89 50.6931 25.6155 51.008C25.341 51.3149 24.9996 51.5491 24.6447 51.7106C24.2899 51.8802 23.9016 51.8964 23.5401 51.8802H23.5334C23.5267 51.8802 23.5133 51.8802 23.5066 51.8722C23.3191 51.8075 23.0982 51.7672 22.8906 51.7752C22.6764 51.7833 22.4621 51.8398 22.2546 51.9206C22.4354 51.7672 22.6496 51.6622 22.8772 51.6137C23.1049 51.5572 23.3325 51.533 23.5735 51.5895L23.5467 51.5814C23.8882 51.533 24.223 51.4845 24.5175 51.2988C24.8188 51.1292 25.1 50.9192 25.3343 50.6285C25.8097 50.0712 26.1645 49.3282 26.3855 48.5852L26.4993 48.876C26.2583 48.7468 26.0172 48.6256 25.7628 48.5529C25.5084 48.4722 25.254 48.4399 24.9929 48.4399C24.4707 48.4722 23.9351 48.6822 23.5267 49.1344Z" fill="url(#paint44_linear)"/>
<defs>
<linearGradient id="paint0_linear" x1="1.05415" y1="12.7812" x2="78.7176" y2="12.7812" gradientUnits="userSpaceOnUse">
<stop stop-color="#BAF772"/>
<stop offset="1" stop-color="#047524"/>
</linearGradient>
<linearGradient id="paint1_linear" x1="44.2162" y1="21.719" x2="55.6122" y2="21.719" gradientUnits="userSpaceOnUse">
<stop stop-color="#AF0036"/>
<stop offset="1" stop-color="#D54E4E"/>
</linearGradient>
<linearGradient id="paint2_linear" x1="3.33329" y1="51.7137" x2="76.2821" y2="51.7137" gradientUnits="userSpaceOnUse">
<stop stop-color="#BAF772"/>
<stop offset="1" stop-color="#047524"/>
</linearGradient>
<linearGradient id="paint3_linear" x1="48.0648" y1="69.5762" x2="48.0648" y2="37.9919" gradientUnits="userSpaceOnUse">
<stop stop-color="#AF0036"/>
<stop offset="1" stop-color="#D54E4E"/>
</linearGradient>
<linearGradient id="paint4_linear" x1="47.2604" y1="43.2333" x2="47.2604" y2="41.4735" gradientUnits="userSpaceOnUse">
<stop stop-color="#AF0036"/>
<stop offset="1" stop-color="#D54E4E"/>
</linearGradient>
<linearGradient id="paint5_linear" x1="43.4111" y1="46.4506" x2="43.4111" y2="41.8122" gradientUnits="userSpaceOnUse">
<stop stop-color="#AF0036"/>
<stop offset="1" stop-color="#D54E4E"/>
</linearGradient>
<linearGradient id="paint6_linear" x1="44.6524" y1="48.1304" x2="44.6524" y2="45.4657" gradientUnits="userSpaceOnUse">
<stop stop-color="#AF0036"/>
<stop offset="1" stop-color="#D54E4E"/>
</linearGradient>
<linearGradient id="paint7_linear" x1="49.253" y1="48.4802" x2="49.253" y2="46.165" gradientUnits="userSpaceOnUse">
<stop stop-color="#AF0036"/>
<stop offset="1" stop-color="#D54E4E"/>
</linearGradient>
<linearGradient id="paint8_linear" x1="40.3053" y1="54.3169" x2="40.3053" y2="51.8077" gradientUnits="userSpaceOnUse">
<stop stop-color="#AF0036"/>
<stop offset="1" stop-color="#D54E4E"/>
</linearGradient>
<linearGradient id="paint9_linear" x1="39.3117" y1="62.4015" x2="39.3117" y2="59.9591" gradientUnits="userSpaceOnUse">
<stop stop-color="#AF0036"/>
<stop offset="1" stop-color="#D54E4E"/>
</linearGradient>
<linearGradient id="paint10_linear" x1="43.4104" y1="59.1488" x2="43.4104" y2="56.5201" gradientUnits="userSpaceOnUse">
<stop stop-color="#AF0036"/>
<stop offset="1" stop-color="#D54E4E"/>
</linearGradient>
<linearGradient id="paint11_linear" x1="47.0328" y1="54.4077" x2="47.0328" y2="51.7179" gradientUnits="userSpaceOnUse">
<stop stop-color="#AF0036"/>
<stop offset="1" stop-color="#D54E4E"/>
</linearGradient>
<linearGradient id="paint12_linear" x1="52.8909" y1="51.0658" x2="52.8909" y2="48.5227" gradientUnits="userSpaceOnUse">
<stop stop-color="#AF0036"/>
<stop offset="1" stop-color="#D54E4E"/>
</linearGradient>
<linearGradient id="paint13_linear" x1="48.2179" y1="59.7806" x2="48.2179" y2="57.187" gradientUnits="userSpaceOnUse">
<stop stop-color="#AF0036"/>
<stop offset="1" stop-color="#D54E4E"/>
</linearGradient>
<linearGradient id="paint14_linear" x1="43.2037" y1="64.6355" x2="43.2037" y2="61.82" gradientUnits="userSpaceOnUse">
<stop stop-color="#AF0036"/>
<stop offset="1" stop-color="#D54E4E"/>
</linearGradient>
<linearGradient id="paint15_linear" x1="48.7354" y1="63.8883" x2="48.7354" y2="61.4682" gradientUnits="userSpaceOnUse">
<stop stop-color="#AF0036"/>
<stop offset="1" stop-color="#D54E4E"/>
</linearGradient>
<linearGradient id="paint16_linear" x1="51.6903" y1="57.3391" x2="51.6903" y2="54.4347" gradientUnits="userSpaceOnUse">
<stop stop-color="#AF0036"/>
<stop offset="1" stop-color="#D54E4E"/>
</linearGradient>
<linearGradient id="paint17_linear" x1="54.133" y1="61.2912" x2="54.133" y2="58.4731" gradientUnits="userSpaceOnUse">
<stop stop-color="#AF0036"/>
<stop offset="1" stop-color="#D54E4E"/>
</linearGradient>
<linearGradient id="paint18_linear" x1="56.617" y1="57.4323" x2="56.617" y2="55.1904" gradientUnits="userSpaceOnUse">
<stop stop-color="#AF0036"/>
<stop offset="1" stop-color="#D54E4E"/>
</linearGradient>
<linearGradient id="paint19_linear" x1="50.6884" y1="38.6222" x2="56.5142" y2="38.6222" gradientUnits="userSpaceOnUse">
<stop stop-color="#BAF772"/>
<stop offset="1" stop-color="#047524"/>
</linearGradient>
<linearGradient id="paint20_linear" x1="58.2634" y1="43.4759" x2="64.0387" y2="43.4759" gradientUnits="userSpaceOnUse">
<stop stop-color="#BAF772"/>
<stop offset="1" stop-color="#047524"/>
</linearGradient>
<linearGradient id="paint21_linear" x1="54.7925" y1="37.1384" x2="59.0707" y2="37.1384" gradientUnits="userSpaceOnUse">
<stop stop-color="#BAF772"/>
<stop offset="1" stop-color="#047524"/>
</linearGradient>
<linearGradient id="paint22_linear" x1="58.0978" y1="38.9568" x2="62.6729" y2="38.9568" gradientUnits="userSpaceOnUse">
<stop stop-color="#BAF772"/>
<stop offset="1" stop-color="#047524"/>
</linearGradient>
<linearGradient id="paint23_linear" x1="55.663" y1="46.9781" x2="62.4043" y2="46.9781" gradientUnits="userSpaceOnUse">
<stop stop-color="#BAF772"/>
<stop offset="1" stop-color="#047524"/>
</linearGradient>
<linearGradient id="paint24_linear" x1="34.2703" y1="60.5736" x2="18.7355" y2="58.0866" gradientUnits="userSpaceOnUse">
<stop stop-color="#AF0036"/>
<stop offset="1" stop-color="#D54E4E"/>
</linearGradient>
<linearGradient id="paint25_linear" x1="21.3682" y1="58.1575" x2="20.5029" y2="58.019" gradientUnits="userSpaceOnUse">
<stop stop-color="#AF0036"/>
<stop offset="1" stop-color="#D54E4E"/>
</linearGradient>
<linearGradient id="paint26_linear" x1="22.4969" y1="61.246" x2="20.2155" y2="60.8808" gradientUnits="userSpaceOnUse">
<stop stop-color="#AF0036"/>
<stop offset="1" stop-color="#D54E4E"/>
</linearGradient>
<linearGradient id="paint27_linear" x1="23.4542" y1="60.5577" x2="22.1436" y2="60.3479" gradientUnits="userSpaceOnUse">
<stop stop-color="#AF0036"/>
<stop offset="1" stop-color="#D54E4E"/>
</linearGradient>
<linearGradient id="paint28_linear" x1="24.1456" y1="57.341" x2="23.007" y2="57.1587" gradientUnits="userSpaceOnUse">
<stop stop-color="#AF0036"/>
<stop offset="1" stop-color="#D54E4E"/>
</linearGradient>
<linearGradient id="paint29_linear" x1="25.9707" y1="64.3339" x2="24.7366" y2="64.1363" gradientUnits="userSpaceOnUse">
<stop stop-color="#AF0036"/>
<stop offset="1" stop-color="#D54E4E"/>
</linearGradient>
<linearGradient id="paint30_linear" x1="29.7897" y1="65.9527" x2="28.5884" y2="65.7604" gradientUnits="userSpaceOnUse">
<stop stop-color="#AF0036"/>
<stop offset="1" stop-color="#D54E4E"/>
</linearGradient>
<linearGradient id="paint31_linear" x1="28.6721" y1="62.6844" x2="27.3792" y2="62.4774" gradientUnits="userSpaceOnUse">
<stop stop-color="#AF0036"/>
<stop offset="1" stop-color="#D54E4E"/>
</linearGradient>
<linearGradient id="paint32_linear" x1="26.7767" y1="59.584" x2="25.4538" y2="59.3722" gradientUnits="userSpaceOnUse">
<stop stop-color="#AF0036"/>
<stop offset="1" stop-color="#D54E4E"/>
</linearGradient>
<linearGradient id="paint33_linear" x1="25.8153" y1="55.0596" x2="24.5645" y2="54.8593" gradientUnits="userSpaceOnUse">
<stop stop-color="#AF0036"/>
<stop offset="1" stop-color="#D54E4E"/>
</linearGradient>
<linearGradient id="paint34_linear" x1="29.5239" y1="59.3539" x2="28.2482" y2="59.1497" gradientUnits="userSpaceOnUse">
<stop stop-color="#AF0036"/>
<stop offset="1" stop-color="#D54E4E"/>
</linearGradient>
<linearGradient id="paint35_linear" x1="31.3168" y1="63.4533" x2="29.932" y2="63.2316" gradientUnits="userSpaceOnUse">
<stop stop-color="#AF0036"/>
<stop offset="1" stop-color="#D54E4E"/>
</linearGradient>
<linearGradient id="paint36_linear" x1="31.5805" y1="59.453" x2="30.3901" y2="59.2624" gradientUnits="userSpaceOnUse">
<stop stop-color="#AF0036"/>
<stop offset="1" stop-color="#D54E4E"/>
</linearGradient>
<linearGradient id="paint37_linear" x1="28.73" y1="56.6209" x2="27.3014" y2="56.3922" gradientUnits="userSpaceOnUse">
<stop stop-color="#AF0036"/>
<stop offset="1" stop-color="#D54E4E"/>
</linearGradient>
<linearGradient id="paint38_linear" x1="30.9284" y1="55.3403" x2="29.5424" y2="55.1184" gradientUnits="userSpaceOnUse">
<stop stop-color="#AF0036"/>
<stop offset="1" stop-color="#D54E4E"/>
</linearGradient>
<linearGradient id="paint39_linear" x1="29.3335" y1="53.1444" x2="28.2308" y2="52.9678" gradientUnits="userSpaceOnUse">
<stop stop-color="#AF0036"/>
<stop offset="1" stop-color="#D54E4E"/>
</linearGradient>
<linearGradient id="paint40_linear" x1="19.5141" y1="55.2093" x2="20.4588" y2="51.1533" gradientUnits="userSpaceOnUse">
<stop stop-color="#BAF772"/>
<stop offset="1" stop-color="#047524"/>
</linearGradient>
<linearGradient id="paint41_linear" x1="22.7322" y1="50.3994" x2="23.6688" y2="46.3786" gradientUnits="userSpaceOnUse">
<stop stop-color="#BAF772"/>
<stop offset="1" stop-color="#047524"/>
</linearGradient>
<linearGradient id="paint42_linear" x1="19.2574" y1="52.137" x2="19.9512" y2="49.1585" gradientUnits="userSpaceOnUse">
<stop stop-color="#BAF772"/>
<stop offset="1" stop-color="#047524"/>
</linearGradient>
<linearGradient id="paint43_linear" x1="20.5159" y1="50.0043" x2="21.2579" y2="46.8191" gradientUnits="userSpaceOnUse">
<stop stop-color="#BAF772"/>
<stop offset="1" stop-color="#047524"/>
</linearGradient>
<linearGradient id="paint44_linear" x1="24.1409" y1="52.6363" x2="25.2342" y2="47.9429" gradientUnits="userSpaceOnUse">
<stop stop-color="#BAF772"/>
<stop offset="1" stop-color="#047524"/>
</linearGradient>
</defs>
</svg>
