<svg width="40" height="40" fill="none" xmlns="http://www.w3.org/2000/svg"><path d="M36.356 38.732a233.03 233.03 0 00-9.198.173c-3.066.106-6.132.282-9.198.418-1.531.062-3.066.136-4.597.172l-2.299.067-2.298.036c-1.532.019-3.067.011-4.598.004l-.573-.004h-.217l-.102-.003c-.137-.008-.27-.011-.407-.037a3.355 3.355 0 01-1.486-.602C.51 38.343-.019 37.312 0 36.278c.145-5.922.517-11.844.578-17.763.034-2.96.03-5.922-.019-8.883a346.112 346.112 0 00-.095-4.44L.449 4.64c-.004-.17-.015-.404.019-.628.06-.444.224-.88.494-1.255.52-.755 1.443-1.25 2.412-1.273 3.066-.091 6.132-.213 9.198-.282 3.067-.077 6.133-.114 9.199-.158l9.198-.11C32.499.91 34.035.91 35.566.91h.79l.107.004c.144.007.288.01.429.036a3.67 3.67 0 011.588.62c.935.639 1.535 1.736 1.52 2.855l-.046 4.44c-.015 1.478-.026 2.96-.072 4.44l-.053 2.219-.084 2.22c-.05 1.479-.137 2.96-.209 4.44-.144 2.96-.327 5.922-.44 8.883-.073 1.478-.095 2.96-.141 4.44-.023.373.008.73-.053 1.13a2.384 2.384 0 01-.468 1.07 2.597 2.597 0 01-2.078 1.024zm0-.22c.733-.004 1.448-.363 1.862-.943.213-.286.342-.624.387-.965.042-.334.012-.723.004-1.086-.045-1.479-.068-2.96-.14-4.44-.114-2.96-.297-5.921-.441-8.883-.072-1.478-.163-2.96-.21-4.44l-.083-2.219-.053-2.22c-.042-1.478-.057-2.96-.072-4.44l-.046-4.44a1.192 1.192 0 00-.513-.942 1.138 1.138 0 00-.52-.206c-.046-.01-.095-.01-.14-.014l-.039-.004h-.79c-1.531 0-3.066 0-4.597-.022l-9.198-.121c-3.066-.04-6.132-.08-9.195-.154-3.066-.07-6.132-.19-9.198-.283a1.875 1.875 0 00-1.52.69 1.762 1.762 0 00-.368.782c-.05.253-.038.679-.053 1.034a247.173 247.173 0 00-.095 4.44 314.68 314.68 0 00-.02 8.883c.065 5.918.438 11.84.578 17.762.016.452.263.877.646 1.123.186.128.407.194.623.228.054.01.11.01.167.014l.042.004h.217l.574-.004a281.78 281.78 0 014.597.004l2.298.037 2.299.066c1.531.036 3.066.11 4.597.172 3.066.136 6.132.312 9.198.418 3.07.11 6.136.18 9.202.17z" fill="url(#paint0_linear)"/><path d="M29.331 20.005a12.523 12.523 0 01-.589 3.72c-.399 1.215-1.003 2.411-1.873 3.45a8.838 8.838 0 01-3.297 2.45 9.418 9.418 0 01-4.127.738 10.11 10.11 0 01-3.981-1.075c-1.216-.609-2.276-1.427-3.188-2.356-1.823-1.856-3.009-4.289-3.225-6.923-.095-1.31.049-2.675.524-3.948.463-1.28 1.227-2.462 2.2-3.46 1.93-2.004 4.783-3.251 7.67-3.203a10.57 10.57 0 014.165.91 9.263 9.263 0 013.282 2.513c.87 1.046 1.47 2.245 1.87 3.464.383 1.218.573 2.469.57 3.72zm-.228 0a7.241 7.241 0 00-.92-3.497c-.577-1.064-1.428-1.959-2.366-2.66a10.864 10.864 0 00-3.059-1.578 9.836 9.836 0 00-3.316-.528 9.986 9.986 0 00-3.283.606 9.018 9.018 0 00-2.865 1.717 9.197 9.197 0 00-2.032 2.664c-.51 1.005-.867 2.113-.965 3.272-.1 1.156.038 2.356.478 3.468a7.774 7.774 0 002.022 2.953c.896.819 2.002 1.402 3.15 1.736 1.15.334 2.344.437 3.498.363 2.31-.15 4.499-.936 6.398-2.34.935-.713 1.782-1.608 2.36-2.675a7.153 7.153 0 00.9-3.5z" fill="url(#paint1_linear)"/><path d="M25.82 20.005a8.017 8.017 0 01-.38 2.4c-.258.781-.645 1.555-1.207 2.223a5.702 5.702 0 01-2.128 1.582 5.974 5.974 0 01-2.663.473 6.537 6.537 0 01-2.569-.694 7.757 7.757 0 01-2.059-1.519c-1.174-1.196-1.941-2.766-2.082-4.465a6.102 6.102 0 01.338-2.546c.3-.826.794-1.589 1.421-2.231 1.246-1.292 3.085-2.099 4.95-2.066a6.8 6.8 0 012.687.587c.836.378 1.558.95 2.116 1.622 1.12 1.361 1.577 3.034 1.577 4.634zm-.144 0a4.673 4.673 0 00-.592-2.256c-.373-.686-.92-1.263-1.528-1.718a6.959 6.959 0 00-1.972-1.016 6.347 6.347 0 00-2.139-.341c-1.443.018-2.883.524-3.966 1.5a5.967 5.967 0 00-1.934 3.831c-.06.745.027 1.52.308 2.238.277.716.722 1.38 1.303 1.905a5.238 5.238 0 002.033 1.119 6.58 6.58 0 002.256.235 7.737 7.737 0 004.127-1.512c.604-.459 1.15-1.035 1.523-1.725a4.655 4.655 0 00.581-2.26z" fill="url(#paint2_linear)"/><path d="M33.499 8.55c-.011.528-.114 1.097-.479 1.592-.353.492-1.018.79-1.649.73-.642-.047-1.181-.407-1.565-.81a2.664 2.664 0 01-.733-1.512c-.08-.58.122-1.222.566-1.673a2.35 2.35 0 011.732-.738c.327.008.65.081.943.217.288.14.535.352.714.594.36.5.471 1.072.471 1.6zm-.076 0c.004-.528-.334-1.005-.752-1.255a2.407 2.407 0 00-1.3-.37 1.95 1.95 0 00-1.223.444 1.993 1.993 0 00-.657 1.181 1.497 1.497 0 00.49 1.343c.387.345.934.418 1.39.37.464-.05.89-.19 1.307-.45.415-.254.76-.735.745-1.263z" fill="url(#paint3_linear)"/><defs><linearGradient id="paint0_linear" x1="-.191" y1="20.262" x2="39.92" y2="20.262" gradientUnits="userSpaceOnUse"><stop stop-color="#AF0036"/><stop offset="1" stop-color="#D54E4E"/></linearGradient><linearGradient id="paint1_linear" x1="11.885" y1="12.402" x2="26.778" y2="27.824" gradientUnits="userSpaceOnUse"><stop stop-color="#BAF772"/><stop offset="1" stop-color="#047524"/></linearGradient><linearGradient id="paint2_linear" x1="14.567" y1="15.101" x2="24.175" y2="25.049" gradientUnits="userSpaceOnUse"><stop stop-color="#BAF772"/><stop offset="1" stop-color="#047524"/></linearGradient><linearGradient id="paint3_linear" x1="29.681" y1="6.812" x2="33.05" y2="10.301" gradientUnits="userSpaceOnUse"><stop stop-color="#AF0036"/><stop offset="1" stop-color="#D54E4E"/></linearGradient></defs></svg>