<svg width="41" height="40" fill="none" xmlns="http://www.w3.org/2000/svg"><path d="M37.173 38.467a231.3 231.3 0 00-9.198.172c-3.066.106-6.132.283-9.199.418-1.53.063-3.066.136-4.597.173l-2.298.066-2.299.037c-1.531.018-3.066.01-4.597.003l-.574-.003h-.216l-.103-.004c-.137-.007-.27-.011-.406-.037A3.355 3.355 0 012.2 38.69c-.874-.612-1.402-1.643-1.383-2.678.145-5.92.517-11.838.581-17.76.035-2.962.03-5.923-.019-8.884a346.292 346.292 0 00-.095-4.44l-.015-.555c-.004-.168-.015-.403.02-.627a2.72 2.72 0 01.49-1.255c.52-.756 1.443-1.251 2.412-1.273 3.066-.092 6.132-.213 9.198-.283 3.066-.077 6.132-.114 9.198-.158l9.198-.11c1.531-.022 3.066-.022 4.598-.022h.79l.106.004c.145.007.289.01.43.037a3.67 3.67 0 011.588.62c.934.638 1.535 1.735 1.52 2.855L40.77 8.6c-.015 1.478-.027 2.961-.072 4.44l-.054 2.22-.083 2.22c-.05 1.479-.137 2.961-.21 4.44-.143 2.961-.326 5.922-.44 8.884-.072 1.479-.095 2.961-.14 4.44-.023.374.007.73-.054 1.13-.064.385-.224.76-.467 1.072a2.605 2.605 0 01-2.078 1.02zm0-.22c.733-.004 1.447-.364 1.861-.944.213-.286.342-.623.388-.965.042-.334.011-.723.004-1.086-.046-1.479-.069-2.961-.14-4.44-.115-2.961-.297-5.922-.442-8.884-.072-1.479-.163-2.961-.208-4.44l-.084-2.22-.053-2.22c-.042-1.479-.057-2.961-.072-4.44l-.046-4.44a1.192 1.192 0 00-.513-.943 1.139 1.139 0 00-.52-.206c-.046-.01-.095-.01-.141-.014L37.169 3h-.79c-1.531 0-3.066 0-4.597-.022l-9.199-.11c-3.066-.04-6.132-.08-9.198-.158-3.066-.07-6.132-.187-9.198-.282a1.875 1.875 0 00-1.52.69A1.762 1.762 0 002.3 3.9c-.05.253-.038.679-.053 1.035a247.223 247.223 0 00-.095 4.44c-.05 2.961-.05 5.922-.02 8.884.065 5.922.438 11.845.578 17.764.015.451.262.877.646 1.123.186.128.407.194.623.227.053.011.11.011.167.015l.042.004h.216l.573-.004c1.532-.008 3.066-.015 4.598.004l2.298.036 2.299.066c1.53.037 3.066.11 4.597.173 3.066.136 6.132.312 9.198.418 3.074.103 6.14.172 9.206.161z" fill="url(#paint0_linear)"/><path d="M5.27 14.93a52.283 52.283 0 002.808 5.373 38.19 38.19 0 001.652 2.539 27.92 27.92 0 001.858 2.378c1.322 1.5 2.83 2.858 4.578 3.735.87.44 1.801.73 2.751.83.475.044.942.047 1.486.044l1.573.003-.213.033c.053-.018.178-.073.254-.12.088-.052.16-.11.217-.166a.402.402 0 00.11-.154.227.227 0 00.023-.066c0-.011.004-.022.008-.037l.007-.099c.034-.535.034-1.108.023-1.662v-.044c0-.07.015-.14.042-.202.167-.374.338-.668.653-.976a1.73 1.73 0 01.604-.385 1.38 1.38 0 01.828-.04c.525.146.802.462 1.045.719l.604.686c.821.91 1.68 1.805 2.546 2.682l.084.11c-.054-.088-.046-.066-.065-.088-.004-.007-.019-.014-.019-.018-.011-.008-.011-.008-.015-.008a.797.797 0 00.137.048c.09.022.2.033.311.044.217.015.486.019.733.026l1.501.044c1 .033 2.002.044 3.002.066l-.145.04c.27-.168.544-.4.718-.65.084-.127.14-.26.164-.388a.609.609 0 00-.084-.367c-.05-.059-.076-.11-.137-.176l-.186-.195-.376-.385-.748-.778c-1.011-1.027-2.014-2.066-3.036-3.082l-.004-.004c-.011-.01-.019-.022-.027-.033a2.519 2.519 0 01-.402-1.105c-.05-.392.072-.862.323-1.177l1.238-1.732 2.47-3.472c.216-.304.391-.54.501-.81a.894.894 0 00.08-.335c-.004-.014 0-.036-.004-.047-.007-.008-.007-.011-.007-.019-.008.004-.008.008-.004.008s-.011.003-.008.003c.008-.003-.011-.007-.026-.01-.015-.004-.02-.012-.042-.019-.057-.004-.095-.022-.164-.022l-.205-.004-.273.008-1.09.025c-1.452.033-2.903.063-4.358.081l.52-.242c-.118.15-.247.334-.353.503-.053.088-.107.172-.148.257l-.164.308-.68 1.21c-.46.8-.923 1.597-1.41 2.39-.243.396-.49.792-.76 1.188-.144.206-.258.386-.482.639l-.045.048-.076.07-.042.032c-.02.015-.012.011-.069.048a1.155 1.155 0 01-.277.125l-.102.037c-.11.04-.251.088-.41.124-.172.037-.358.07-.605.048-.24-.022-.536-.117-.74-.3-.119-.085-.18-.18-.26-.28-.064-.095-.105-.183-.155-.279a2.34 2.34 0 01-.14-.488c-.035-.158-.038-.29-.05-.433l-.019-.348-.03-.68a215.62 215.62 0 01-.118-2.71l-.05-1.359-.007-.168-.004-.085c-.004-.04.008.055.004.03v-.004a.384.384 0 00-.205-.26.871.871 0 00-.35-.078l-.684-.003-1.402-.011-2.803-.023.273-.05a1.35 1.35 0 00-.308.172c-.019.014-.034.025-.038.033-.003.003-.007.007-.011.007.004 0 .008-.004.008-.007 0-.008.041-.081.026-.155-.008-.036 0-.058-.023-.084-.015-.018 0-.014-.007-.018-.015-.004.011.01.023.025.019.015.015.026.045.045.057.036.095.073.163.113l.21.118.08.044a.518.518 0 01.098.073c.262.253.437.473.612.8.08.162.152.349.182.576.008.059.008.118.012.176v.283l-.008 1.468-.027 2.939v.04a.454.454 0 01-.053.213c-.13.26-.258.433-.46.635a1.496 1.496 0 01-.862.43 2.354 2.354 0 01-.277.003c-.088-.015-.171-.033-.259-.051a1.58 1.58 0 01-.414-.195 2.418 2.418 0 01-.543-.499l-.202-.257-.163-.238c-.11-.162-.213-.32-.315-.481-.202-.323-.395-.646-.59-.969a111.289 111.289 0 01-2.18-3.926l-.008-.011a.341.341 0 01-.034-.1 1.344 1.344 0 00-.304-.608 1.187 1.187 0 00-.592-.367 2.103 2.103 0 00-.38-.059l-.468-.026-.92-.073c-.607-.051-1.215-.103-1.819-.125-.304-.01-.604-.022-.904-.01-.148.007-.3.014-.441.04-.068.014-.14.029-.198.054-.049.008-.095.07-.102.067zm-.152.012c.023-.155.114-.191.186-.239.076-.044.156-.066.232-.092.156-.044.311-.07.463-.091.312-.044.62-.066.927-.077.616-.026 1.231-.022 1.843-.022l.916-.004.448-.011c.175 0 .35.007.528.04.361.063.71.25.969.51.262.272.433.558.536.943l-.042-.11a102.454 102.454 0 002.409 3.754c.209.308.418.61.63.91l.323.44.164.217.152.176c.098.11.209.202.292.253.088.044.133.055.133.044.004-.003.053-.022.122-.099.064-.062.148-.202.182-.275l-.053.253-.088-2.946-.038-1.475-.003-.184-.004-.084c-.004-.004-.004-.004 0-.008a.527.527 0 00-.053-.12 1.546 1.546 0 00-.304-.368l.178.118-.33-.17c-.11-.058-.228-.146-.342-.22-.057-.036-.122-.102-.179-.157-.06-.059-.114-.103-.178-.198-.061-.088-.118-.158-.164-.272-.041-.12-.087-.235-.095-.367-.003-.132-.003-.282.038-.396.035-.125.084-.242.141-.323.027-.044.057-.092.087-.132l.091-.103a1.11 1.11 0 01.183-.172c.25-.202.452-.316.737-.433a.664.664 0 01.25-.052h.027l2.85-.022 1.425-.01c.246 0 .46-.004.729.003a2.56 2.56 0 011.01.257 1.965 1.965 0 011.034 1.32l.015.082a.748.748 0 01.012.113l.003.085.008.172.05 1.373c.034.913.06 1.827.083 2.744l.019.687.011.33c.008.084.004.18.023.246.012.15.084.242.023.169-.038-.023-.091-.052-.102-.04a.347.347 0 00.098-.012 2.33 2.33 0 00.262-.077l.095-.03.137-.036a.51.51 0 00-.197.084l-.042.03-.012.01.016-.014c.087-.088.235-.286.357-.459.254-.36.501-.737.748-1.119.49-.763.969-1.54 1.44-2.323l.695-1.174.168-.297a7.365 7.365 0 01.669-.947l.007-.007a.672.672 0 01.513-.235c1.451.018 2.902.044 4.358.08l1.09.027.274.007.338.03c.114.01.247.05.368.084.065.018.137.058.205.091a.706.706 0 01.202.132c.064.06.133.114.182.188.05.077.091.154.13.234.022.078.041.158.053.239.01.077.003.143.003.217a1.878 1.878 0 01-.193.675c-.179.378-.453.7-.661.961l-2.649 3.336-1.322 1.67a1.036 1.036 0 00-.254.796c.019.293.136.616.288.873l-.03-.037c.988 1.053 1.995 2.088 2.994 3.13l.76.774.38.386.19.194c.064.066.133.165.197.246.11.195.179.426.152.657-.03.224-.121.422-.232.595a3.144 3.144 0 01-.85.825.23.23 0 01-.126.04h-.015c-1 .019-2.003.03-3.002.067l-1.5.043c-.255.004-.487.019-.772.019a3.051 3.051 0 01-.433-.037 1.197 1.197 0 01-.395-.121.544.544 0 01-.144-.106c-.027-.033-.034-.022-.095-.121l.083.11a74.264 74.264 0 01-2.743-2.565c-.224-.22-.444-.444-.665-.672-.182-.18-.376-.32-.475-.323-.023 0-.041-.01-.053 0-.011-.003-.03.011-.045.015a.579.579 0 00-.164.136 1.958 1.958 0 00-.346.569l.038-.243c.035.595.054 1.17.035 1.78l-.004.114-.023.18a1.56 1.56 0 01-.099.345 1.733 1.733 0 01-.38.557c-.148.15-.311.272-.478.37a2.826 2.826 0 01-.544.258.595.595 0 01-.194.033h-.022l-1.585-.011c-.27-.004-.509.007-.797-.011-.285-.022-.57-.019-.852-.059a9.34 9.34 0 01-3.195-1.01c-.984-.506-1.858-1.162-2.655-1.87a19.75 19.75 0 01-2.178-2.305c-1.306-1.64-2.382-3.416-3.312-5.247-.916-1.853-1.703-3.718-2.3-5.706z" fill="url(#paint1_linear)"/><defs><linearGradient id="paint0_linear" x1=".627" y1="19.996" x2="40.738" y2="19.996" gradientUnits="userSpaceOnUse"><stop stop-color="#AF0036"/><stop offset="1" stop-color="#D54E4E"/></linearGradient><linearGradient id="paint1_linear" x1="4.434" y1="22.251" x2="36.14" y2="22.251" gradientUnits="userSpaceOnUse"><stop stop-color="#BAF772"/><stop offset="1" stop-color="#047524"/></linearGradient></defs></svg>